<?xml version="1.0" encoding="UTF-8"?>
<svg version="1.1" xmlns="http://www.w3.org/2000/svg" width="1024" height="1024">
<path d="M0 0 C337.92 0 675.84 0 1024 0 C1024 337.92 1024 675.84 1024 1024 C686.08 1024 348.16 1024 0 1024 C0 686.08 0 348.16 0 0 Z " fill="#FCFCFC" transform="translate(0,0)"/>
<path d="M0 0 C2.56986328 0.89760775 4.42554225 1.96237166 6.63671875 3.54296875 C15.85840762 9.9283816 25.70223355 15.32187773 35.44921875 20.85546875 C35.44921875 21.51546875 35.44921875 22.17546875 35.44921875 22.85546875 C36.15820312 23.11972656 36.8671875 23.38398438 37.59765625 23.65625 C45.84611608 27.12512283 53.37087266 32.41428247 60.875 37.2421875 C63.15841046 38.67321712 65.45846399 40.00451579 67.82421875 41.29296875 C77.10330943 46.35130491 85.96717615 52.17401257 94.92382812 57.77856445 C100.77917673 61.44094294 106.6429484 65.08963854 112.51171875 68.73046875 C113.39214844 69.27791748 114.27257812 69.82536621 115.1796875 70.3894043 C119.88758783 73.30709673 124.62313978 76.13787088 129.44921875 78.85546875 C131.26641462 79.88892164 133.07948694 80.92968861 134.88671875 81.98046875 C135.75167969 82.47804688 136.61664062 82.975625 137.5078125 83.48828125 C138.14847656 83.93945312 138.78914063 84.390625 139.44921875 84.85546875 C139.44921875 85.51546875 139.44921875 86.17546875 139.44921875 86.85546875 C141.09921875 87.18546875 142.74921875 87.51546875 144.44921875 87.85546875 C144.44921875 88.51546875 144.44921875 89.17546875 144.44921875 89.85546875 C146.09921875 90.18546875 147.74921875 90.51546875 149.44921875 90.85546875 C149.44921875 91.51546875 149.44921875 92.17546875 149.44921875 92.85546875 C150.39796875 93.16484375 151.34671875 93.47421875 152.32421875 93.79296875 C155.44921875 94.85546875 155.44921875 94.85546875 157.44921875 95.85546875 C157.44921875 96.51546875 157.44921875 97.17546875 157.44921875 97.85546875 C158.08859375 98.08234375 158.72796875 98.30921875 159.38671875 98.54296875 C168.77006224 102.56440167 177.50095446 108.34076027 186.09765625 113.80078125 C186.93506348 114.33243896 187.7724707 114.86409668 188.63525391 115.41186523 C190.31646517 116.48139223 191.99589528 117.55372535 193.67333984 118.62915039 C197.84328979 121.28519937 201.97230171 123.75420608 206.44921875 125.85546875 C206.44921875 126.51546875 206.44921875 127.17546875 206.44921875 127.85546875 C207.16464844 128.13132812 207.88007812 128.4071875 208.6171875 128.69140625 C211.4066073 129.83795397 214.07212233 131.1177399 216.76171875 132.48046875 C217.64472656 132.92648437 218.52773438 133.3725 219.4375 133.83203125 C220.10136719 134.16976562 220.76523437 134.5075 221.44921875 134.85546875 C221.44921875 135.51546875 221.44921875 136.17546875 221.44921875 136.85546875 C222.15949219 137.12101563 222.86976563 137.3865625 223.6015625 137.66015625 C232.19729247 141.26824043 239.94904441 146.80652258 247.63671875 152.01171875 C250.78120784 154.07310604 254.00742469 155.87332141 257.31640625 157.65234375 C259.54746428 158.9108893 261.64477705 160.28882387 263.76171875 161.73046875 C267.14398552 164.03017609 270.58984826 166.13110546 274.13671875 168.16796875 C278.81951649 170.86703959 283.40405339 173.68310899 287.94921875 176.60546875 C288.53662842 176.98227783 289.12403809 177.35908691 289.72924805 177.74731445 C291.31091444 178.77058424 292.88054911 179.8123843 294.44921875 180.85546875 C295.16001304 181.22049657 295.87080732 181.58552439 296.60314083 181.96161366 C299.48879944 184.92195418 299.03122362 188.25788235 299.01771545 192.17277527 C299.03660054 193.46059771 299.03660054 193.46059771 299.05586714 194.77443677 C299.09301025 197.66250992 299.10133717 200.54994254 299.10961914 203.43823242 C299.1297655 205.50450164 299.15148594 207.57075602 299.17466736 209.63699341 C299.23148728 215.25905515 299.26134377 220.88093925 299.28290486 226.50323653 C299.29684224 230.01518222 299.31523174 233.52707798 299.33492851 237.03899574 C299.39501854 248.02525864 299.43824227 259.01140413 299.45814615 269.99781436 C299.48135997 282.6834529 299.56030431 295.36712411 299.68764883 308.05213565 C299.78265165 317.85439728 299.82772684 327.65610217 299.83505052 337.45881826 C299.8405472 343.31501005 299.86724744 349.16928006 299.94597054 355.02498436 C300.01869314 360.53591202 300.0294062 366.04353058 299.99279213 371.55478287 C299.98998487 373.57528131 300.00935497 375.59595286 300.05272293 377.61598778 C300.35382467 392.50364617 300.35382467 392.50364617 297.13209224 396.48186707 C293.39803917 399.71605913 288.49974423 402.85546875 283.44921875 402.85546875 C283.44921875 403.51546875 283.44921875 404.17546875 283.44921875 404.85546875 C282.45921875 404.85546875 281.46921875 404.85546875 280.44921875 404.85546875 C280.44921875 405.51546875 280.44921875 406.17546875 280.44921875 406.85546875 C277.54372993 408.8971636 276.04779829 409.85546875 272.44921875 409.85546875 C272.44921875 410.51546875 272.44921875 411.17546875 272.44921875 411.85546875 C269.54372993 413.8971636 268.04779829 414.85546875 264.44921875 414.85546875 C264.44921875 415.51546875 264.44921875 416.17546875 264.44921875 416.85546875 C261.54372993 418.8971636 260.04779829 419.85546875 256.44921875 419.85546875 C256.44921875 420.51546875 256.44921875 421.17546875 256.44921875 421.85546875 C255.67835938 422.26539063 254.9075 422.6753125 254.11328125 423.09765625 C253.11039063 423.63648438 252.1075 424.1753125 251.07421875 424.73046875 C250.07648437 425.26414062 249.07875 425.7978125 248.05078125 426.34765625 C245.3957348 427.73748255 245.3957348 427.73748255 243.44921875 429.85546875 C242.45921875 429.85546875 241.46921875 429.85546875 240.44921875 429.85546875 C240.44921875 430.51546875 240.44921875 431.17546875 240.44921875 431.85546875 C239.77117188 432.20738281 239.093125 432.55929687 238.39453125 432.921875 C232.43767702 436.08181291 226.93908018 439.48807267 221.54296875 443.53515625 C219.44921875 444.85546875 219.44921875 444.85546875 216.44921875 444.85546875 C216.44921875 445.51546875 216.44921875 446.17546875 216.44921875 446.85546875 C215.43601562 447.34466797 215.43601562 447.34466797 214.40234375 447.84375 C213.5103125 448.28074219 212.61828125 448.71773437 211.69921875 449.16796875 C210.37664062 449.81185547 210.37664062 449.81185547 209.02734375 450.46875 C206.43575447 451.76983687 206.43575447 451.76983687 204.30859375 453.5234375 C202.44921875 454.85546875 202.44921875 454.85546875 199.44921875 454.85546875 C202.61223418 459.59999189 206.7063872 462.24417247 211.40234375 465.3046875 C212.0778125 465.81644531 212.75328125 466.32820313 213.44921875 466.85546875 C213.44921875 467.51546875 213.44921875 468.17546875 213.44921875 468.85546875 C214.34640625 469.28859375 214.34640625 469.28859375 215.26171875 469.73046875 C217.44921875 470.85546875 217.44921875 470.85546875 220.44921875 472.85546875 C220.44921875 473.51546875 220.44921875 474.17546875 220.44921875 474.85546875 C221.00867188 475.10554688 221.568125 475.355625 222.14453125 475.61328125 C224.82069359 477.05568739 226.98029127 478.79545074 229.32421875 480.73046875 C232.16390034 483.05346271 234.94472339 485.25301564 238.07421875 487.16796875 C238.85796875 487.72484375 239.64171875 488.28171875 240.44921875 488.85546875 C240.44921875 489.84546875 240.44921875 490.83546875 240.44921875 491.85546875 C241.25359375 492.22671875 241.25359375 492.22671875 242.07421875 492.60546875 C245.03161695 494.16199412 247.74645926 495.88982548 250.44921875 497.85546875 C250.44921875 498.51546875 250.44921875 499.17546875 250.44921875 499.85546875 C251.76921875 499.85546875 253.08921875 499.85546875 254.44921875 499.85546875 C254.44921875 500.51546875 254.44921875 501.17546875 254.44921875 501.85546875 C255.10921875 501.85546875 255.76921875 501.85546875 256.44921875 501.85546875 C256.77921875 502.51546875 257.10921875 503.17546875 257.44921875 503.85546875 C258.43921875 504.18546875 259.42921875 504.51546875 260.44921875 504.85546875 C260.44921875 505.51546875 260.44921875 506.17546875 260.44921875 506.85546875 C261.25359375 507.12359375 262.05796875 507.39171875 262.88671875 507.66796875 C263.73234375 508.05984375 264.57796875 508.45171875 265.44921875 508.85546875 C265.77921875 509.84546875 266.10921875 510.83546875 266.44921875 511.85546875 C267.77253671 512.22657313 269.10842232 512.55355182 270.44921875 512.85546875 C272.58984375 514.1953125 272.58984375 514.1953125 274.69921875 515.79296875 C275.75882813 516.57994141 275.75882813 516.57994141 276.83984375 517.3828125 C277.3709375 517.86878906 277.90203125 518.35476563 278.44921875 518.85546875 C278.44921875 519.51546875 278.44921875 520.17546875 278.44921875 520.85546875 C279.76921875 521.18546875 281.08921875 521.51546875 282.44921875 521.85546875 C282.44921875 522.51546875 282.44921875 523.17546875 282.44921875 523.85546875 C283.00609375 524.12359375 283.56296875 524.39171875 284.13671875 524.66796875 C286.66147209 525.96446371 289.08636359 527.28023198 291.44921875 528.85546875 C291.44921875 529.51546875 291.44921875 530.17546875 291.44921875 530.85546875 C292.02414062 531.12617187 292.5990625 531.396875 293.19140625 531.67578125 C295.48205058 532.8726231 297.49162201 534.20217532 299.57421875 535.73046875 C300.59902344 536.46910156 300.59902344 536.46910156 301.64453125 537.22265625 C303.57129475 538.96591846 304.45065103 540.47743634 305.44921875 542.85546875 C304.69898438 543.27957031 303.94875 543.70367188 303.17578125 544.140625 C298.09698195 547.05102007 293.13633715 549.99151296 288.38671875 553.41796875 C284.06170212 556.52919039 279.55625911 559.02800842 274.8515625 561.515625 C272.12631194 563.03556149 269.84278073 564.86083377 267.44921875 566.85546875 C265.80519714 567.82254028 264.15907682 568.78698964 262.48828125 569.70703125 C259.12805904 571.5995702 255.86520231 573.65476835 252.5859375 575.68359375 C250.44921875 576.85546875 250.44921875 576.85546875 248.44921875 576.85546875 C248.44921875 577.51546875 248.44921875 578.17546875 248.44921875 578.85546875 C245.54372993 580.8971636 244.04779829 581.85546875 240.44921875 581.85546875 C240.44921875 582.51546875 240.44921875 583.17546875 240.44921875 583.85546875 C239.02609375 584.62890625 239.02609375 584.62890625 237.57421875 585.41796875 C234.39658782 587.22548756 231.4281496 589.23742158 228.44921875 591.35546875 C217.85244456 598.85546875 217.85244456 598.85546875 213.44921875 598.85546875 C213.11921875 599.84546875 212.78921875 600.83546875 212.44921875 601.85546875 C209.33804734 603.8353051 207.41932091 604.94365986 203.69921875 604.60546875 C201.44921875 603.85546875 201.44921875 603.85546875 199.44921875 602.85546875 C199.44921875 602.19546875 199.44921875 601.53546875 199.44921875 600.85546875 C198.76859375 600.62859375 198.08796875 600.40171875 197.38671875 600.16796875 C193.31566833 598.34898878 188.50392891 595.96488907 186.44921875 591.85546875 C185.45921875 591.52546875 184.46921875 591.19546875 183.44921875 590.85546875 C183.44921875 590.19546875 183.44921875 589.53546875 183.44921875 588.85546875 C182.12921875 588.52546875 180.80921875 588.19546875 179.44921875 587.85546875 C179.44921875 587.19546875 179.44921875 586.53546875 179.44921875 585.85546875 C178.72089844 585.59894531 177.99257813 585.34242188 177.2421875 585.078125 C174.3211792 583.79941787 172.22909409 582.29954394 169.76171875 580.29296875 C166.76145554 577.83074444 166.76145554 577.83074444 163.44921875 575.85546875 C163.44921875 575.19546875 163.44921875 574.53546875 163.44921875 573.85546875 C162.80984375 573.58734375 162.17046875 573.31921875 161.51171875 573.04296875 C159.44921875 571.85546875 159.44921875 571.85546875 158.44921875 568.85546875 C157.70671875 568.79359375 156.96421875 568.73171875 156.19921875 568.66796875 C153.44921875 567.85546875 153.44921875 567.85546875 151.63671875 565.54296875 C149.11736249 562.44775963 146.90788534 561.40537419 143.35546875 559.76171875 C141.13200087 558.70466025 139.26609746 557.5209409 137.44921875 555.85546875 C137.44921875 555.19546875 137.44921875 554.53546875 137.44921875 553.85546875 C136.86076172 553.57711182 136.27230469 553.29875488 135.66601562 553.01196289 C133.5906713 551.92926399 131.84121259 550.76412661 129.98046875 549.3515625 C129.33311768 548.86284668 128.6857666 548.37413086 128.01879883 547.87060547 C127.3358374 547.34998535 126.65287598 546.82936523 125.94921875 546.29296875 C124.50524598 545.20047108 123.06123527 544.10802355 121.6171875 543.015625 C120.90739746 542.47695801 120.19760742 541.93829102 119.46630859 541.38330078 C116.74118223 539.31917093 114.00143322 537.27519557 111.26171875 535.23046875 C108.12713661 532.88597307 105.01134565 530.52173103 101.92578125 528.11328125 C101.33563232 527.6538916 100.7454834 527.19450195 100.13745117 526.72119141 C98.99671274 525.8313168 97.85870541 524.93792656 96.72387695 524.04052734 C94.29114421 522.1435365 92.40401139 520.84039963 89.44921875 519.85546875 C89.44921875 570.01546875 89.44921875 620.17546875 89.44921875 671.85546875 C82.44921875 675.85546875 82.44921875 675.85546875 80.44921875 675.85546875 C80.44921875 676.51546875 80.44921875 677.17546875 80.44921875 677.85546875 C79.56234375 678.35046875 78.67546875 678.84546875 77.76171875 679.35546875 C70.30700567 683.61314025 63.02499127 688.18361819 55.82421875 692.85546875 C52.44921875 694.85546875 52.44921875 694.85546875 49.44921875 694.85546875 C49.44921875 695.51546875 49.44921875 696.17546875 49.44921875 696.85546875 C47.79921875 697.18546875 46.14921875 697.51546875 44.44921875 697.85546875 C44.44921875 698.51546875 44.44921875 699.17546875 44.44921875 699.85546875 C43.50046875 700.39171875 42.55171875 700.92796875 41.57421875 701.48046875 C39.30861442 702.76585243 37.0781525 704.0852832 34.86328125 705.45703125 C33.98414063 706.00101563 33.105 706.545 32.19921875 707.10546875 C30.95398438 707.88664063 30.95398438 707.88664063 29.68359375 708.68359375 C27.44921875 709.85546875 27.44921875 709.85546875 24.44921875 709.85546875 C24.11921875 710.84546875 23.78921875 711.83546875 23.44921875 712.85546875 C21.41015625 714.06640625 21.41015625 714.06640625 18.82421875 715.23046875 C15.53542977 716.78116555 12.59430303 718.34244505 9.69921875 720.54296875 C6.47459188 722.83741479 4.30217396 724.05095232 0.44921875 724.85546875 C-2.015625 723.6171875 -2.015625 723.6171875 -4.48828125 721.54296875 C-8.96967544 718.00211408 -13.50280293 714.93937022 -18.42578125 712.04296875 C-19.05605225 711.67067139 -19.68632324 711.29837402 -20.33569336 710.91479492 C-23.04161398 709.32152867 -25.75115949 707.74411798 -28.49609375 706.21875 C-29.17414063 705.76886719 -29.8521875 705.31898438 -30.55078125 704.85546875 C-30.55078125 704.19546875 -30.55078125 703.53546875 -30.55078125 702.85546875 C-31.23140625 702.79359375 -31.91203125 702.73171875 -32.61328125 702.66796875 C-35.82556466 701.77946483 -37.87299092 700.26209393 -40.50390625 698.265625 C-44.26691644 695.67316951 -48.42814702 693.80480284 -52.55078125 691.85546875 C-52.55078125 691.19546875 -52.55078125 690.53546875 -52.55078125 689.85546875 C-53.54078125 689.85546875 -54.53078125 689.85546875 -55.55078125 689.85546875 C-55.55078125 689.19546875 -55.55078125 688.53546875 -55.55078125 687.85546875 C-56.35515625 687.64921875 -57.15953125 687.44296875 -57.98828125 687.23046875 C-61.86385138 685.73463467 -64.82240161 683.7615893 -68.22265625 681.4140625 C-70.31139805 680.01572697 -72.40006283 678.79232825 -74.61328125 677.60546875 C-79.73083056 674.83533661 -84.6213214 671.72088742 -89.52758789 668.59667969 C-93.72136529 665.94182173 -97.98566004 663.48170786 -102.3359375 661.09277344 C-105.8032925 659.15576339 -109.17401289 657.07018853 -112.55078125 654.98046875 C-118.96434203 651.03197238 -125.40936063 647.1409234 -131.87866211 643.28442383 C-141.71560587 637.41819297 -151.438175 631.4326584 -161.015625 625.15234375 C-164.72545904 622.7245194 -168.51433831 620.44644972 -172.3359375 618.19921875 C-175.51807571 616.26860932 -178.57982706 614.17113762 -181.640625 612.0546875 C-183.64054077 610.69410273 -183.64054077 610.69410273 -186.55078125 609.85546875 C-186.55078125 609.19546875 -186.55078125 608.53546875 -186.55078125 607.85546875 C-187.27007812 607.76265625 -187.989375 607.66984375 -188.73046875 607.57421875 C-192.01993104 606.73590703 -193.9640572 605.37889587 -196.67578125 603.35546875 C-199.39009963 601.34241803 -201.33273454 599.92815099 -204.55078125 598.85546875 C-204.55078125 598.19546875 -204.55078125 597.53546875 -204.55078125 596.85546875 C-205.12892578 596.7354248 -205.70707031 596.61538086 -206.30273438 596.49169922 C-208.65587239 595.82572641 -210.41946305 594.92047317 -212.51953125 593.67578125 C-213.25558594 593.24136719 -213.99164063 592.80695312 -214.75 592.359375 C-215.50925781 591.90433594 -216.26851563 591.44929687 -217.05078125 590.98046875 C-217.81003906 590.53316406 -218.56929688 590.08585938 -219.3515625 589.625 C-222.89912056 587.51883155 -226.27019564 585.36198359 -229.55078125 582.85546875 C-230.97466458 582.03956518 -232.41285224 581.24819139 -233.86328125 580.48046875 C-236.69654449 578.9371465 -239.34469779 577.35222647 -241.92578125 575.41796875 C-246.48541762 572.03327414 -251.53641589 569.49413117 -256.55078125 566.85546875 C-256.55078125 566.19546875 -256.55078125 565.53546875 -256.55078125 564.85546875 C-257.36160156 564.64019531 -258.17242187 564.42492187 -259.0078125 564.203125 C-263.53490752 562.48113186 -267.23667654 559.98947719 -271.23828125 557.29296875 C-272.74021117 556.28870465 -274.24404137 555.28727515 -275.75 554.2890625 C-276.40830811 553.84618896 -277.06661621 553.40331543 -277.74487305 552.94702148 C-279.66818871 551.69405187 -279.66818871 551.69405187 -282.55078125 550.85546875 C-282.55078125 550.19546875 -282.55078125 549.53546875 -282.55078125 548.85546875 C-283.35515625 548.64921875 -284.15953125 548.44296875 -284.98828125 548.23046875 C-289.77693539 546.38221627 -293.95491171 544.61596828 -297.55078125 540.85546875 C-298.85790303 536.78346405 -298.70118241 532.86680977 -298.58837891 528.62060547 C-298.59127961 527.38444677 -298.59418032 526.14828808 -298.59716892 524.87467003 C-298.59615646 521.47273274 -298.55500104 518.07569183 -298.49616981 514.67455769 C-298.44327124 511.06186929 -298.44184628 507.44913679 -298.43440247 503.83612061 C-298.41208497 496.87520529 -298.34263663 489.91554603 -298.2572481 482.9551506 C-298.16081599 474.90872318 -298.11680274 466.86225694 -298.07544601 458.81538939 C-297.97559985 439.82786013 -297.78194056 420.84180527 -297.55078125 401.85546875 C-297.53702705 400.72150665 -297.52327286 399.58754456 -297.50910187 398.41921997 C-297.340729 384.693572 -297.15608347 370.96795389 -296.91439819 357.24337769 C-296.33101039 324.02177852 -296.74329918 290.80713188 -297.1853056 257.58546448 C-297.25125032 252.56206224 -297.30593844 247.53908571 -297.33421326 242.51531982 C-297.39219823 233.55050462 -297.52068512 224.61914497 -298.02070904 215.66649151 C-298.23323881 211.70540887 -298.38153694 207.74319136 -298.52208138 203.77897835 C-298.60513608 201.92152661 -298.71874739 200.06514407 -298.86550713 198.2116375 C-299.77630408 186.59433254 -299.77630408 186.59433254 -297.55078125 181.85546875 C-293.01282268 177.08193196 -286.72415025 173.99990618 -280.55078125 171.85546875 C-279.89078125 171.85546875 -279.23078125 171.85546875 -278.55078125 171.85546875 C-278.55078125 171.19546875 -278.55078125 170.53546875 -278.55078125 169.85546875 C-277.95910156 169.52933594 -277.36742187 169.20320312 -276.7578125 168.8671875 C-273.33942261 166.97675655 -269.93834008 165.09460079 -266.61328125 163.04296875 C-264.55078125 161.85546875 -264.55078125 161.85546875 -262.55078125 161.85546875 C-262.55078125 161.19546875 -262.55078125 160.53546875 -262.55078125 159.85546875 C-261.80699219 159.44039062 -261.06320312 159.0253125 -260.296875 158.59765625 C-251.12845512 153.42350666 -242.14218938 147.98079009 -233.19702148 142.42919922 C-232.23610596 141.83768066 -231.27519043 141.24616211 -230.28515625 140.63671875 C-229.42116211 140.10111328 -228.55716797 139.56550781 -227.66699219 139.01367188 C-225.55078125 137.85546875 -225.55078125 137.85546875 -223.55078125 137.85546875 C-223.55078125 137.19546875 -223.55078125 136.53546875 -223.55078125 135.85546875 C-220.08578125 134.86546875 -220.08578125 134.86546875 -216.55078125 133.85546875 C-216.55078125 133.19546875 -216.55078125 132.53546875 -216.55078125 131.85546875 C-215.26164638 131.18391942 -213.96937921 130.51838016 -212.67578125 129.85546875 C-211.95648438 129.48421875 -211.2371875 129.11296875 -210.49609375 128.73046875 C-208.55078125 127.85546875 -208.55078125 127.85546875 -206.55078125 127.85546875 C-206.55078125 127.19546875 -206.55078125 126.53546875 -206.55078125 125.85546875 C-203.64529243 123.8137739 -202.14936079 122.85546875 -198.55078125 122.85546875 C-198.55078125 122.19546875 -198.55078125 121.53546875 -198.55078125 120.85546875 C-196.76196389 119.85038074 -194.96963429 118.85154139 -193.17578125 117.85546875 C-192.17804688 117.29859375 -191.1803125 116.74171875 -190.15234375 116.16796875 C-187.55078125 114.85546875 -187.55078125 114.85546875 -185.55078125 114.85546875 C-185.55078125 114.19546875 -185.55078125 113.53546875 -185.55078125 112.85546875 C-184.51179688 112.28699219 -183.4728125 111.71851563 -182.40234375 111.1328125 C-175.1963087 107.15396707 -168.21258368 103.19276653 -161.6640625 98.16796875 C-159.28874799 96.6927272 -157.30227569 96.24096709 -154.55078125 95.85546875 C-154.55078125 95.19546875 -154.55078125 94.53546875 -154.55078125 93.85546875 C-147.92578125 89.85546875 -147.92578125 89.85546875 -144.55078125 89.85546875 C-144.22078125 88.86546875 -143.89078125 87.87546875 -143.55078125 86.85546875 C-141.58984375 85.46875 -141.58984375 85.46875 -139.17578125 84.16796875 C-138.38429688 83.73097656 -137.5928125 83.29398437 -136.77734375 82.84375 C-134.55078125 81.85546875 -134.55078125 81.85546875 -131.55078125 81.85546875 C-131.55078125 81.19546875 -131.55078125 80.53546875 -131.55078125 79.85546875 C-129.97558594 78.70483398 -129.97558594 78.70483398 -127.72265625 77.4140625 C-126.8728418 76.92059326 -126.02302734 76.42712402 -125.14746094 75.91870117 C-124.20805664 75.38220947 -123.26865234 74.84571777 -122.30078125 74.29296875 C-120.29965102 73.13345883 -118.29971131 71.97189253 -116.30078125 70.80859375 C-114.68042969 69.8659668 -114.68042969 69.8659668 -113.02734375 68.90429688 C-109.29946563 66.71904413 -105.61073809 64.47152162 -101.92578125 62.21484375 C-101.29069641 61.82631729 -100.65561157 61.43779083 -100.00128174 61.03749084 C-97.47068361 59.4882105 -94.94085563 57.93775726 -92.41540527 56.38009644 C-90.64511899 55.28866572 -88.87168139 54.20252678 -87.09765625 53.1171875 C-86.07510742 52.48772217 -85.05255859 51.85825684 -83.99902344 51.2097168 C-81.55078125 49.85546875 -81.55078125 49.85546875 -79.55078125 49.85546875 C-79.55078125 49.19546875 -79.55078125 48.53546875 -79.55078125 47.85546875 C-76.90339209 46.39484025 -75.65629791 45.85546875 -72.55078125 45.85546875 C-72.55078125 45.19546875 -72.55078125 44.53546875 -72.55078125 43.85546875 C-70.90625 42.56640625 -70.90625 42.56640625 -68.73828125 41.23046875 C-68.03058594 40.78445312 -67.32289063 40.3384375 -66.59375 39.87890625 C-64.55078125 38.85546875 -64.55078125 38.85546875 -61.55078125 38.85546875 C-61.55078125 38.19546875 -61.55078125 37.53546875 -61.55078125 36.85546875 C-60.66777344 36.35917969 -59.78476562 35.86289063 -58.875 35.3515625 C-51.28572574 31.0645159 -43.86375735 26.60284274 -36.55078125 21.85546875 C-34.88735527 20.79294546 -33.22392215 19.7304333 -31.56030273 18.66821289 C-25.19182658 14.59546326 -18.88311214 10.43914395 -12.61230469 6.2175293 C-10.93074455 5.08843575 -9.24101013 3.9715436 -7.55078125 2.85546875 C-6.68582031 2.24445313 -5.82085937 1.6334375 -4.9296875 1.00390625 C-2.55078125 -0.14453125 -2.55078125 -0.14453125 0 0 Z " fill="#9BE1D6" transform="translate(511.55078125,135.14453125)"/>
<path d="M0 0 C0.30370011 27.2420681 0.53293448 54.48388251 0.67355824 81.72730255 C0.74058875 94.3770456 0.83196905 107.02573681 0.98071289 119.67480469 C1.11029937 130.70000071 1.19415886 141.72443505 1.22315043 152.75037146 C1.2400983 158.58887874 1.27990941 164.42520709 1.37449074 170.26301575 C1.46282379 175.75976576 1.48993632 181.25344306 1.47039986 186.75083542 C1.47397271 188.76656687 1.49979013 190.78240233 1.54967117 192.79751968 C1.899307 207.65254676 1.899307 207.65254676 -1.31445909 211.62460899 C-5.04841327 214.85918978 -9.9496007 218 -15 218 C-15 218.66 -15 219.32 -15 220 C-15.99 220 -16.98 220 -18 220 C-18 220.66 -18 221.32 -18 222 C-20.90548882 224.04169485 -22.40142046 225 -26 225 C-26 225.66 -26 226.32 -26 227 C-28.90548882 229.04169485 -30.40142046 230 -34 230 C-34 230.66 -34 231.32 -34 232 C-36.90548882 234.04169485 -38.40142046 235 -42 235 C-42 235.66 -42 236.32 -42 237 C-42.77085937 237.40992188 -43.54171875 237.81984375 -44.3359375 238.2421875 C-45.33882812 238.78101563 -46.34171875 239.31984375 -47.375 239.875 C-48.37273437 240.40867187 -49.37046875 240.94234375 -50.3984375 241.4921875 C-53.05348395 242.8820138 -53.05348395 242.8820138 -55 245 C-55.99 245 -56.98 245 -58 245 C-58 245.66 -58 246.32 -58 247 C-58.67804688 247.35191406 -59.35609375 247.70382812 -60.0546875 248.06640625 C-66.01154173 251.22634416 -71.51013857 254.63260392 -76.90625 258.6796875 C-79 260 -79 260 -82 260 C-82 260.66 -82 261.32 -82 262 C-82.67546875 262.32613281 -83.3509375 262.65226562 -84.046875 262.98828125 C-84.93890625 263.42527344 -85.8309375 263.86226562 -86.75 264.3125 C-88.07257813 264.95638672 -88.07257813 264.95638672 -89.421875 265.61328125 C-92.01346428 266.91436812 -92.01346428 266.91436812 -94.140625 268.66796875 C-96 270 -96 270 -99 270 C-95.83698457 274.74452314 -91.74283155 277.38870372 -87.046875 280.44921875 C-86.37140625 280.96097656 -85.6959375 281.47273438 -85 282 C-85 282.66 -85 283.32 -85 284 C-84.401875 284.28875 -83.80375 284.5775 -83.1875 284.875 C-81 286 -81 286 -78 288 C-78 288.66 -78 289.32 -78 290 C-77.44054687 290.25007813 -76.88109375 290.50015625 -76.3046875 290.7578125 C-73.62852516 292.20021864 -71.46892748 293.93998199 -69.125 295.875 C-66.28531841 298.19799396 -63.50449536 300.39754689 -60.375 302.3125 C-59.59125 302.869375 -58.8075 303.42625 -58 304 C-58 304.99 -58 305.98 -58 307 C-57.195625 307.37125 -57.195625 307.37125 -56.375 307.75 C-53.4176018 309.30652537 -50.70275949 311.03435673 -48 313 C-48 313.66 -48 314.32 -48 315 C-46.68 315 -45.36 315 -44 315 C-44 315.66 -44 316.32 -44 317 C-43.34 317 -42.68 317 -42 317 C-41.67 317.66 -41.34 318.32 -41 319 C-40.01 319.33 -39.02 319.66 -38 320 C-38 320.66 -38 321.32 -38 322 C-37.195625 322.268125 -36.39125 322.53625 -35.5625 322.8125 C-34.716875 323.204375 -33.87125 323.59625 -33 324 C-32.67 324.99 -32.34 325.98 -32 327 C-30.67668204 327.37110438 -29.34079643 327.69808307 -28 328 C-25.859375 329.33984375 -25.859375 329.33984375 -23.75 330.9375 C-22.69039062 331.72447266 -22.69039062 331.72447266 -21.609375 332.52734375 C-21.07828125 333.01332031 -20.5471875 333.49929688 -20 334 C-20 334.66 -20 335.32 -20 336 C-18.68 336.33 -17.36 336.66 -16 337 C-16 337.66 -16 338.32 -16 339 C-15.1646875 339.4021875 -15.1646875 339.4021875 -14.3125 339.8125 C-11.78774666 341.10899496 -9.36285516 342.42476323 -7 344 C-7 344.66 -7 345.32 -7 346 C-6.42507813 346.27070312 -5.85015625 346.54140625 -5.2578125 346.8203125 C-2.96716817 348.01715435 -0.95759674 349.34670657 1.125 350.875 C1.80820312 351.36742187 2.49140625 351.85984375 3.1953125 352.3671875 C5.122076 354.11044971 6.00143228 355.62196759 7 358 C6.24976563 358.42410156 5.49953125 358.84820313 4.7265625 359.28515625 C-0.3522368 362.19555132 -5.3128816 365.13604421 -10.0625 368.5625 C-14.38751663 371.67372164 -18.89295964 374.17253967 -23.59765625 376.66015625 C-26.32290681 378.18009274 -28.60643802 380.00536502 -31 382 C-32.64402161 382.96707153 -34.29014193 383.93152089 -35.9609375 384.8515625 C-39.32115971 386.74410145 -42.58401644 388.7992996 -45.86328125 390.828125 C-48 392 -48 392 -50 392 C-50 392.66 -50 393.32 -50 394 C-52.90548882 396.04169485 -54.40142046 397 -58 397 C-58 397.66 -58 398.32 -58 399 C-58.94875 399.515625 -59.8975 400.03125 -60.875 400.5625 C-64.05263093 402.37001881 -67.02106915 404.38195283 -70 406.5 C-80.59677419 414 -80.59677419 414 -85 414 C-85.33 414.99 -85.66 415.98 -86 417 C-89.11117141 418.97983635 -91.02989784 420.08819111 -94.75 419.75 C-97 419 -97 419 -99 418 C-99 417.34 -99 416.68 -99 416 C-100.0209375 415.6596875 -100.0209375 415.6596875 -101.0625 415.3125 C-105.13355042 413.49352003 -109.94528984 411.10942032 -112 407 C-112.99 406.67 -113.98 406.34 -115 406 C-115 405.34 -115 404.68 -115 404 C-116.32 403.67 -117.64 403.34 -119 403 C-119 402.34 -119 401.68 -119 401 C-119.72832031 400.74347656 -120.45664062 400.48695313 -121.20703125 400.22265625 C-124.12803955 398.94394912 -126.22012466 397.44407519 -128.6875 395.4375 C-131.68776321 392.97527569 -131.68776321 392.97527569 -135 391 C-135 390.34 -135 389.68 -135 389 C-135.639375 388.731875 -136.27875 388.46375 -136.9375 388.1875 C-139 387 -139 387 -140 384 C-140.7425 383.938125 -141.485 383.87625 -142.25 383.8125 C-145 383 -145 383 -146.8125 380.6875 C-149.33185626 377.59229088 -151.54133341 376.54990544 -155.09375 374.90625 C-157.31721788 373.8491915 -159.18312129 372.66547215 -161 371 C-161 370.34 -161 369.68 -161 369 C-161.58845703 368.72164307 -162.17691406 368.44328613 -162.78320312 368.15649414 C-164.85854745 367.07379524 -166.60800616 365.90865786 -168.46875 364.49609375 C-169.11610107 364.00737793 -169.76345215 363.51866211 -170.43041992 363.01513672 C-171.11338135 362.4945166 -171.79634277 361.97389648 -172.5 361.4375 C-173.94397277 360.34500233 -175.38798348 359.2525548 -176.83203125 358.16015625 C-177.54182129 357.62148926 -178.25161133 357.08282227 -178.98291016 356.52783203 C-181.70803652 354.46370218 -184.44778553 352.41972682 -187.1875 350.375 C-190.32208214 348.03050432 -193.4378731 345.66626228 -196.5234375 343.2578125 C-197.11358643 342.79842285 -197.70373535 342.3390332 -198.31176758 341.86572266 C-199.45250601 340.97584805 -200.59051334 340.08245781 -201.7253418 339.18505859 C-204.15807454 337.28806775 -206.04520736 335.98493088 -209 335 C-209 385.16 -209 435.32 -209 487 C-216 491 -216 491 -218 491 C-218 491.66 -218 492.32 -218 493 C-218.886875 493.495 -219.77375 493.99 -220.6875 494.5 C-228.14221308 498.7576715 -235.42422748 503.32814944 -242.625 508 C-246 510 -246 510 -249 510 C-249 510.66 -249 511.32 -249 512 C-250.65 512.33 -252.3 512.66 -254 513 C-254 513.66 -254 514.32 -254 515 C-254.94875 515.53625 -255.8975 516.0725 -256.875 516.625 C-259.14060433 517.91038368 -261.37106625 519.22981445 -263.5859375 520.6015625 C-264.46507812 521.14554688 -265.34421875 521.68953125 -266.25 522.25 C-267.08015625 522.77078125 -267.9103125 523.2915625 -268.765625 523.828125 C-271 525 -271 525 -274 525 C-274.33 525.99 -274.66 526.98 -275 528 C-277.0390625 529.2109375 -277.0390625 529.2109375 -279.625 530.375 C-282.91378898 531.9256968 -285.85491572 533.4869763 -288.75 535.6875 C-291.97462687 537.98194604 -294.14704479 539.19548357 -298 540 C-300.46484375 538.76171875 -300.46484375 538.76171875 -302.9375 536.6875 C-307.41889419 533.14664533 -311.95202168 530.08390147 -316.875 527.1875 C-317.505271 526.81520264 -318.13554199 526.44290527 -318.78491211 526.05932617 C-321.49083273 524.46605992 -324.20037824 522.88864923 -326.9453125 521.36328125 C-327.62335938 520.91339844 -328.30140625 520.46351563 -329 520 C-329 519.34 -329 518.68 -329 518 C-330.0209375 517.9071875 -330.0209375 517.9071875 -331.0625 517.8125 C-334.27478341 516.92399608 -336.32220967 515.40662518 -338.953125 513.41015625 C-342.71613519 510.81770076 -346.87736577 508.94933409 -351 507 C-351 506.34 -351 505.68 -351 505 C-351.99 505 -352.98 505 -354 505 C-354 504.34 -354 503.68 -354 503 C-354.804375 502.79375 -355.60875 502.5875 -356.4375 502.375 C-360.31307013 500.87916592 -363.27162036 498.90612055 -366.671875 496.55859375 C-368.7606168 495.16025822 -370.84928158 493.9368595 -373.0625 492.75 C-378.18004931 489.97986786 -383.07054015 486.86541867 -387.97680664 483.74121094 C-392.17058404 481.08635298 -396.43487879 478.62623911 -400.78515625 476.23730469 C-404.25251125 474.30029464 -407.62323164 472.21471978 -411 470.125 C-417.41356078 466.17650363 -423.85857938 462.28545465 -430.32788086 458.42895508 C-439.4865177 452.96723044 -448.5834429 447.45009384 -457.49072266 441.58569336 C-461.96604026 438.64087377 -466.5125683 435.88934942 -471.21484375 433.31640625 C-473.47146511 431.65233317 -474.2572786 430.7233118 -475 428 C-474.68667976 427.06985706 -474.37335953 426.13971413 -474.05054474 425.18138504 C-472.34536852 419.5212555 -472.76018475 413.67607688 -472.81237793 407.82049561 C-472.81765997 405.80327366 -472.82293907 403.7860517 -472.82810807 401.76882946 C-472.8355438 399.60832574 -472.84790647 397.44790043 -472.86169529 395.28742838 C-472.89061985 390.71513758 -472.90524549 386.14287018 -472.91710663 381.57050705 C-472.92130868 379.99974174 -472.92553216 378.42897648 -472.92977667 376.85821128 C-472.93188672 376.07413397 -472.93399677 375.29005666 -472.93617076 374.48221943 C-472.94316419 372.07432922 -472.95148505 369.66644692 -472.96018839 367.25856233 C-473.01379192 352.08395864 -472.97648785 336.91028302 -472.91625202 321.73576242 C-472.90267232 318.24872963 -472.89051941 314.76169186 -472.87821198 311.27465439 C-472.85528342 304.83670956 -472.8311134 298.39877007 -472.80645475 291.96083166 C-472.77746366 284.3746077 -472.74996137 276.7883785 -472.72249681 269.20214888 C-472.67354561 255.69091462 -472.62352349 242.17968457 -472.57275391 228.66845703 C-472.52365458 215.60107638 -472.47510573 202.53369385 -472.42724609 189.46630859 C-472.4242591 188.65080202 -472.4212721 187.83529546 -472.41819459 186.99507657 C-472.40320197 182.90092386 -472.38821962 178.80677111 -472.37324238 174.71261835 C-472.25042013 141.14173959 -472.12582921 107.57086762 -472 74 C-470.40992082 74.78458126 -468.82104221 75.57159593 -467.23266602 76.35961914 C-465.90526146 77.0166256 -465.90526146 77.0166256 -464.55104065 77.68690491 C-461.19120897 79.41630836 -458.09804627 81.36373806 -454.9375 83.4375 C-454.34171143 83.82583008 -453.74592285 84.21416016 -453.13208008 84.61425781 C-449.79555643 86.79435473 -446.48847837 89.01664575 -443.1875 91.25 C-439.68188332 93.60644584 -436.07158912 95.65049555 -432.36328125 97.66796875 C-426.68986184 100.86571424 -421.28187309 104.5198661 -415.8203125 108.0625 C-414.69294885 108.79203848 -413.5653385 109.52119584 -412.4375 110.25 C-411.86563965 110.61988037 -411.2937793 110.98976074 -410.70458984 111.37084961 C-404.91607007 115.09338805 -399.03375281 118.66014821 -393.12866211 122.19433594 C-389.18105102 124.57756728 -385.58385902 127.08398187 -382 130 C-379.81785432 130.77833534 -379.81785432 130.77833534 -378 131 C-378 131.66 -378 132.32 -378 133 C-377.43667969 133.2784375 -376.87335938 133.556875 -376.29296875 133.84375 C-361.36957024 141.36900717 -347.10757879 150.26298076 -332.81396484 158.90771484 C-330.93935486 160.03651768 -329.05791238 161.15332226 -327.17578125 162.26953125 C-325.97115706 162.99185889 -324.76672191 163.7145019 -323.5625 164.4375 C-322.49128906 165.07558594 -321.42007813 165.71367187 -320.31640625 166.37109375 C-319.55199219 166.90863281 -318.78757812 167.44617188 -318 168 C-318 168.66 -318 169.32 -318 170 C-317.01 170.37125 -317.01 170.37125 -316 170.75 C-312.2361039 172.31829004 -308.56864976 174.02530411 -305 176 C-303.97949554 176.47838318 -302.95899109 176.95676636 -301.90756226 177.449646 C-298.74060244 180.2275293 -298.56647514 180.50781656 -298.2784729 184.42926025 C-298.26107713 186.28646632 -298.27704117 188.14415961 -298.31884766 190.00097656 C-298.31753342 191.52340973 -298.31753342 191.52340973 -298.31619263 193.07659912 C-298.32037349 196.43205679 -298.36705193 199.78551651 -298.4140625 203.140625 C-298.42525279 205.46660266 -298.43379376 207.79259446 -298.43978882 210.11859131 C-298.46269985 216.24116041 -298.52164434 222.36287571 -298.5880127 228.48510742 C-298.64938522 234.73214161 -298.67679318 240.97931375 -298.70703125 247.2265625 C-298.77138402 259.48475017 -298.8737923 271.74230409 -299 284 C-298.236875 283.505 -297.47375 283.01 -296.6875 282.5 C-294 281 -294 281 -291 281 C-291 280.34 -291 279.68 -291 279 C-290.01 279 -289.02 279 -288 279 C-288 278.34 -288 277.68 -288 277 C-286.71086513 276.32845067 -285.41859796 275.66291141 -284.125 275 C-283.40570312 274.62875 -282.68640625 274.2575 -281.9453125 273.875 C-280 273 -280 273 -278 273 C-278 272.34 -278 271.68 -278 271 C-274.70450534 269.27735506 -271.66881155 267.70554068 -268 267 C-268 266.34 -268 265.68 -268 265 C-266.83082031 264.39671875 -265.66164063 263.7934375 -264.45703125 263.171875 C-262.90870536 262.36486878 -261.36053653 261.55756116 -259.8125 260.75 C-258.65911133 260.15638672 -258.65911133 260.15638672 -257.48242188 259.55078125 C-253.27711166 257.34885916 -249.67276301 255.03347662 -246 252 C-244.21107481 250.95841328 -242.39759982 249.95789608 -240.5625 249 C-236.54186899 246.86033443 -232.77760811 244.54768919 -229 242 C-223.42857143 239 -223.42857143 239 -221 239 C-221 238.34 -221 237.68 -221 237 C-219.21118264 235.99491199 -217.41885304 234.99607264 -215.625 234 C-214.62726563 233.443125 -213.62953125 232.88625 -212.6015625 232.3125 C-210 231 -210 231 -208 231 C-208 230.34 -208 229.68 -208 229 C-205.35261084 227.5393715 -204.10551666 227 -201 227 C-201 226.34 -201 225.68 -201 225 C-198.91796875 223.4921875 -198.91796875 223.4921875 -196.1875 221.875 C-195.29417969 221.33617187 -194.40085937 220.79734375 -193.48046875 220.2421875 C-191 219 -191 219 -188 219 C-188 218.34 -188 217.68 -188 217 C-186.35 216.67 -184.7 216.34 -183 216 C-183 215.34 -183 214.68 -183 214 C-180.09451118 211.95830515 -178.59857954 211 -175 211 C-175 210.34 -175 209.68 -175 209 C-174.43192627 208.67837891 -173.86385254 208.35675781 -173.27856445 208.02539062 C-155.40746549 197.89643042 -155.40746549 197.89643042 -137.98046875 187.02734375 C-137.01753906 186.39957031 -136.05460937 185.77179688 -135.0625 185.125 C-134.22847656 184.57070313 -133.39445312 184.01640625 -132.53515625 183.4453125 C-129.76705376 181.86719552 -127.04582627 180.91330453 -124 180 C-124 179.34 -124 178.68 -124 178 C-122.21118264 176.99491199 -120.41885304 175.99607264 -118.625 175 C-117.62726563 174.443125 -116.62953125 173.88625 -115.6015625 173.3125 C-113 172 -113 172 -111 172 C-111 171.34 -111 170.68 -111 170 C-109.58671871 169.18162558 -108.16921654 168.37053781 -106.75 167.5625 C-105.96109375 167.11003906 -105.1721875 166.65757812 -104.359375 166.19140625 C-102.21166532 165.10688398 -100.34794939 164.46851284 -98 164 C-98 163.34 -98 162.68 -98 162 C-97.01 161.67 -96.02 161.34 -95 161 C-95.04742844 159.72008179 -95.09485687 158.44016357 -95.14372253 157.12145996 C-95.57486435 145.0013243 -95.86061606 132.88509648 -96.00777721 120.75809479 C-96.08801187 114.52344456 -96.21755736 108.29833711 -96.46411133 102.06787109 C-98.05761198 60.48574829 -98.05761198 60.48574829 -91.39334106 52.21472168 C-85.52305297 46.35611412 -78.07650412 43.51623976 -70.25811768 41.10218811 C-65.54754859 39.50865044 -61.66466911 37.00634141 -57.5625 34.25 C-56.14413455 33.37061611 -54.72268847 32.49616199 -53.296875 31.62890625 C-52.59755859 31.19980957 -51.89824219 30.77071289 -51.17773438 30.32861328 C-47.23698114 27.92440038 -43.27381924 25.55761625 -39.3125 23.1875 C-31.69542811 18.62539944 -24.09104744 14.04278722 -16.5 9.4375 C-15.02140503 8.54357544 -15.02140503 8.54357544 -13.51293945 7.6315918 C-12.59085693 7.07125244 -11.66877441 6.51091309 -10.71875 5.93359375 C-9.90341797 5.43915771 -9.08808594 4.94472168 -8.24804688 4.43530273 C-5.96544041 3.0261585 -5.96544041 3.0261585 -3.83007812 1.31665039 C-2 0 -2 0 0 0 Z " fill="#72D2C6" transform="translate(810,320)"/>
<path d="M0 0 C1.59007918 0.78458126 3.17895779 1.57159593 4.76733398 2.35961914 C5.65227036 2.79762344 6.53720673 3.23562775 7.44895935 3.68690491 C10.80879103 5.41630836 13.90195373 7.36373806 17.0625 9.4375 C17.65828857 9.82583008 18.25407715 10.21416016 18.86791992 10.61425781 C22.20444357 12.79435473 25.51152163 15.01664575 28.8125 17.25 C32.31811668 19.60644584 35.92841088 21.65049555 39.63671875 23.66796875 C45.31013816 26.86571424 50.71812691 30.5198661 56.1796875 34.0625 C57.30705115 34.79203848 58.4346615 35.52119584 59.5625 36.25 C60.13436035 36.61988037 60.7062207 36.98976074 61.29541016 37.37084961 C67.08392993 41.09338805 72.96624719 44.66014821 78.87133789 48.19433594 C82.81894898 50.57756728 86.41614098 53.08398187 90 56 C92.18214568 56.77833534 92.18214568 56.77833534 94 57 C94 57.66 94 58.32 94 59 C94.56332031 59.2784375 95.12664062 59.556875 95.70703125 59.84375 C110.63042976 67.36900717 124.89242121 76.26298076 139.18603516 84.90771484 C141.06064514 86.03651768 142.94208762 87.15332226 144.82421875 88.26953125 C146.02884294 88.99185889 147.23327809 89.7145019 148.4375 90.4375 C149.50871094 91.07558594 150.57992187 91.71367187 151.68359375 92.37109375 C152.44800781 92.90863281 153.21242188 93.44617188 154 94 C154 94.66 154 95.32 154 96 C154.99 96.37125 154.99 96.37125 156 96.75 C159.7638961 98.31829004 163.43135024 100.02530411 167 102 C168.01953294 102.39874801 169.03906588 102.79749601 170.08949375 103.20832729 C172.51082715 104.86568698 172.95157853 105.76532974 173.55324829 108.68126786 C173.76477751 112.41502964 173.77581832 116.12511089 173.72825623 119.86207581 C173.7315879 121.31945258 173.73755274 122.77682532 173.7459293 124.23418182 C173.76131574 128.24445543 173.73918838 132.25378836 173.71105278 136.26396072 C173.68723896 140.58642493 173.69799204 144.90881775 173.70454407 149.23132324 C173.71196382 157.70093594 173.68758665 166.17017675 173.65294313 174.63971014 C173.61399954 184.49616072 173.60805035 194.35254673 173.60396302 204.20906328 C173.5957048 221.79106897 173.55990637 239.37290863 173.50756836 256.95483398 C173.45678908 274.02840268 173.42138006 291.10189965 173.4050293 308.17553711 C173.40351289 309.75303061 173.40351289 309.75303061 173.40196585 311.36239267 C173.39794622 315.58918428 173.39398376 319.81597593 173.39010939 324.04276768 C173.37309063 342.2574815 173.34464971 360.47218056 173.31357017 378.68687519 C173.3085748 381.6401082 173.30377103 384.59334148 173.29898334 387.54657483 C173.28042368 398.75578712 173.2558818 409.96496171 173.22286797 421.17414093 C173.21301567 424.57699182 173.20545289 427.97983549 173.19995499 431.38269615 C173.19354171 435.29265894 173.18249336 439.2025795 173.16762257 443.11251902 C173.16301376 444.53101226 173.16008454 445.9495121 173.15895586 447.36801238 C173.15715152 449.28838399 173.14867056 451.20874593 173.1398077 453.12909794 C173.13549863 454.73263208 173.13549863 454.73263208 173.1311025 456.36856085 C173 459 173 459 172 462 C167.78819376 461.09763399 164.50170285 459.05569467 160.875 456.8125 C159.53791807 455.9945339 158.2006779 455.17682641 156.86328125 454.359375 C156.20924316 453.95783203 155.55520508 453.55628906 154.88134766 453.14257812 C151.51150737 451.09601018 148.08420955 449.14562204 144.66015625 447.19140625 C144.11230469 446.79824219 143.56445312 446.40507813 143 446 C143 445.34 143 444.68 143 444 C141.9790625 443.9071875 141.9790625 443.9071875 140.9375 443.8125 C137.72521659 442.92399608 135.67779033 441.40662518 133.046875 439.41015625 C129.28386481 436.81770076 125.12263423 434.94933409 121 433 C121 432.34 121 431.68 121 431 C120.01 431 119.02 431 118 431 C118 430.34 118 429.68 118 429 C117.195625 428.79375 116.39125 428.5875 115.5625 428.375 C111.68692987 426.87916592 108.72837964 424.90612055 105.328125 422.55859375 C103.2393832 421.16025822 101.15071842 419.9368595 98.9375 418.75 C93.81995069 415.97986786 88.92945985 412.86541867 84.02319336 409.74121094 C79.82941596 407.08635298 75.56512121 404.62623911 71.21484375 402.23730469 C67.74748875 400.30029464 64.37676836 398.21471978 61 396.125 C54.58643922 392.17650363 48.14142062 388.28545465 41.67211914 384.42895508 C32.5134823 378.96723044 23.4165571 373.45009384 14.50927734 367.58569336 C10.03395974 364.64087377 5.4874317 361.88934942 0.78515625 359.31640625 C-1.47146511 357.65233317 -2.2572786 356.7233118 -3 354 C-2.68667976 353.06985706 -2.37335953 352.13971413 -2.05054474 351.18138504 C-0.34536852 345.5212555 -0.76018475 339.67607688 -0.81237793 333.82049561 C-0.81765997 331.80327366 -0.82293907 329.7860517 -0.82810807 327.76882946 C-0.8355438 325.60832574 -0.84790647 323.44790043 -0.86169529 321.28742838 C-0.89061985 316.71513758 -0.90524549 312.14287018 -0.91710663 307.57050705 C-0.92130868 305.99974174 -0.92553216 304.42897648 -0.92977667 302.85821128 C-0.93188672 302.07413397 -0.93399677 301.29005666 -0.93617076 300.48221943 C-0.94316419 298.07432922 -0.95148505 295.66644692 -0.96018839 293.25856233 C-1.01379192 278.08395864 -0.97648785 262.91028302 -0.91625202 247.73576242 C-0.90267232 244.24872963 -0.89051941 240.76169186 -0.87821198 237.27465439 C-0.85528342 230.83670956 -0.8311134 224.39877007 -0.80645475 217.96083166 C-0.77746366 210.3746077 -0.74996137 202.7883785 -0.72249681 195.20214888 C-0.67354561 181.69091462 -0.62352349 168.17968457 -0.57275391 154.66845703 C-0.52365458 141.60107638 -0.47510573 128.53369385 -0.42724609 115.46630859 C-0.4242591 114.65080202 -0.4212721 113.83529546 -0.41819459 112.99507657 C-0.40320197 108.90092386 -0.38821962 104.80677111 -0.37324238 100.71261835 C-0.25042013 67.14173959 -0.12582921 33.57086762 0 0 Z " fill="#2DAE9F" transform="translate(338,394)"/>
<path d="M0 0 C3.22221344 0.73355971 5.34246109 1.72351486 8.0625 3.625 C13.29793071 7.21114317 18.63669466 10.6086828 24 14 C25.46624432 14.93213676 26.93238202 15.86444125 28.3984375 16.796875 C36.2674128 21.793803 44.15721233 26.73865272 52.16845703 31.50439453 C62.11304687 37.43224282 71.9140225 43.59833381 81.74804688 49.70703125 C91.62038953 55.83760806 101.50079905 61.94768911 111.48046875 67.90234375 C112.02294821 68.23975348 112.56542767 68.57716321 113.1243459 68.92479748 C115.06389643 70.08015881 115.06389643 70.08015881 117.49026191 71.09869772 C124.43583761 74.46607075 124.43583761 74.46607075 125.91387391 78.48477733 C126.24923141 81.66500312 126.25804493 84.71140535 126.1645813 87.90830994 C126.17127234 89.72223192 126.17127234 89.72223192 126.17809856 91.57279879 C126.18038109 94.92549786 126.13777066 98.27217309 126.07611322 101.6239444 C126.02052997 105.24223267 126.02297408 108.86053975 126.01832581 112.47918701 C126.00233359 118.75739612 125.94961969 125.03443856 125.87210464 131.31217766 C125.75950591 140.43967591 125.70306322 149.56686047 125.65991746 158.69491989 C125.5881057 173.57249765 125.47170044 188.44938011 125.32714844 203.32641602 C125.18797436 217.66029641 125.06821193 231.99410227 124.9765625 246.32836914 C124.96814115 247.6437332 124.96814115 247.6437332 124.95954968 248.98567026 C124.93147802 253.39173471 124.90384608 257.79780178 124.87647843 262.20387065 C124.82260818 270.8707532 124.76662205 279.53762173 124.70944214 288.20448303 C124.70388738 289.04771105 124.69833262 289.89093906 124.69260953 290.75971944 C124.61112704 303.05054146 124.51526739 315.34118965 124.40896606 327.63182068 C124.39561608 329.19072688 124.38227685 330.74963318 124.36894858 332.30853957 C124.26474387 344.45255742 124.26474387 344.45255742 124.20951104 350.3478936 C124.07461788 364.7612138 123.97147422 379.17112275 124.06976318 393.5852356 C124.07604276 394.70365257 124.08232234 395.82206954 124.0887922 396.97437793 C124.118052 402.07502641 124.16087789 407.17463063 124.23457527 412.27483273 C124.24794577 414.02298486 124.26076471 415.77114135 124.2729187 417.51930237 C124.29021743 418.28654652 124.30751615 419.05379068 124.32533908 419.84428465 C124.3399024 424.94744268 123.2829141 428.42790434 121 433 C117.7 431.35 114.4 429.7 111 428 C111 427.34 111 426.68 111 426 C110.28070313 425.9071875 109.56140625 425.814375 108.8203125 425.71875 C105.53085021 424.88043828 103.58672405 423.52342712 100.875 421.5 C98.16068162 419.48694928 96.21804671 418.07268224 93 417 C93 416.34 93 415.68 93 415 C92.42185547 414.87995605 91.84371094 414.75991211 91.24804688 414.63623047 C88.89490886 413.97025766 87.1313182 413.06500442 85.03125 411.8203125 C84.29519531 411.38589844 83.55914062 410.95148438 82.80078125 410.50390625 C82.04152344 410.04886719 81.28226562 409.59382813 80.5 409.125 C79.74074219 408.67769531 78.98148437 408.23039062 78.19921875 407.76953125 C74.65166069 405.6633628 71.28058561 403.50651484 68 401 C66.57611667 400.18409643 65.13792901 399.39272264 63.6875 398.625 C60.85423676 397.08167775 58.20608346 395.49675772 55.625 393.5625 C51.06536363 390.17780539 46.01436536 387.63866242 41 385 C41 384.34 41 383.68 41 383 C39.78376953 382.67708984 39.78376953 382.67708984 38.54296875 382.34765625 C34.01587373 380.62566311 30.31410471 378.13400844 26.3125 375.4375 C24.81057008 374.4332359 23.30673988 373.4318064 21.80078125 372.43359375 C21.14247314 371.99072021 20.48416504 371.54784668 19.8059082 371.09155273 C17.88259254 369.83858312 17.88259254 369.83858312 15 369 C15 368.34 15 367.68 15 367 C13.7934375 366.690625 13.7934375 366.690625 12.5625 366.375 C7.77384586 364.52674752 3.59586954 362.76049953 0 359 C-1.30712178 354.9279953 -1.15040116 351.01134102 -1.03759766 346.76513672 C-1.04049836 345.52897802 -1.04339907 344.29281933 -1.04638767 343.01920128 C-1.04537521 339.61726399 -1.00421979 336.22022308 -0.94538856 332.81908894 C-0.89248999 329.20640054 -0.89106503 325.59366804 -0.88362122 321.98065186 C-0.86130372 315.01973654 -0.79185538 308.06007728 -0.70646685 301.09968185 C-0.61003474 293.05325443 -0.56602149 285.00678819 -0.52466476 276.95992064 C-0.4248186 257.97239138 -0.23115931 238.98633652 0 220 C0.0137542 218.8660379 0.02750839 217.73207581 0.04167938 216.56375122 C0.21005225 202.83810325 0.39469778 189.11248514 0.63638306 175.38790894 C1.20174215 143.19297253 0.81184772 111.00830231 0.40649414 78.81298828 C0.36810877 75.75242441 0.32975931 72.69186011 0.29153252 69.63129425 C0.26657648 67.63474577 0.24145839 65.63819931 0.21617317 63.64165497 C-0.0487213 42.42762257 -0.05957848 21.21533537 0 0 Z " fill="#64CEC2" transform="translate(214,317)"/>
<path d="M0 0 C0 33.99 0 67.98 0 103 C-1.32 103.33 -2.64 103.66 -4 104 C-4 104.66 -4 105.32 -4 106 C-5.78881736 107.00508801 -7.58114696 108.00392736 -9.375 109 C-10.37273437 109.556875 -11.37046875 110.11375 -12.3984375 110.6875 C-15 112 -15 112 -17 112 C-17 112.66 -17 113.32 -17 114 C-18.41328129 114.81837442 -19.83078346 115.62946219 -21.25 116.4375 C-22.03890625 116.88996094 -22.8278125 117.34242188 -23.640625 117.80859375 C-25.78833468 118.89311602 -27.65205061 119.53148716 -30 120 C-30 120.66 -30 121.32 -30 122 C-30.83402344 122.43570313 -31.66804687 122.87140625 -32.52734375 123.3203125 C-33.65269531 123.91585937 -34.77804687 124.51140625 -35.9375 125.125 C-37.59072266 125.99511719 -37.59072266 125.99511719 -39.27734375 126.8828125 C-42.03272559 128.3968937 -44.63490234 130.06215086 -47.23828125 131.82421875 C-52.44173177 135.34434613 -57.82831894 138.51750627 -63.25 141.6875 C-65.17192959 142.81631331 -67.09380639 143.9452165 -69.015625 145.07421875 C-69.85383789 145.56494873 -70.69205078 146.05567871 -71.55566406 146.5612793 C-73.2809372 147.57676417 -74.98995384 148.62011558 -76.68652344 149.68286133 C-79 151 -79 151 -81 151 C-81 151.66 -81 152.32 -81 153 C-86.75 156 -86.75 156 -89 156 C-89 156.66 -89 157.32 -89 158 C-90.65 158.33 -92.3 158.66 -94 159 C-94 159.66 -94 160.32 -94 161 C-95.6029053 161.81498562 -97.20737278 162.62689927 -98.8125 163.4375 C-99.70582031 163.88996094 -100.59914063 164.34242188 -101.51953125 164.80859375 C-104 166 -104 166 -107 167 C-107 167.66 -107 168.32 -107 169 C-110.465 169.99 -110.465 169.99 -114 171 C-114 171.66 -114 172.32 -114 173 C-115.78881736 174.00508801 -117.58114696 175.00392736 -119.375 176 C-120.37273437 176.556875 -121.37046875 177.11375 -122.3984375 177.6875 C-125 179 -125 179 -127 179 C-127 179.66 -127 180.32 -127 181 C-127.66644531 181.35191406 -128.33289063 181.70382812 -129.01953125 182.06640625 C-135.01871808 185.27995668 -140.79183359 188.71434294 -146.5078125 192.40625 C-151.78478906 195.78086824 -157.30381708 198.73526994 -162.78515625 201.76171875 C-164.85326238 202.91796151 -166.89546265 204.11105183 -168.9375 205.3125 C-172 207 -172 207 -174 207 C-174 207.66 -174 208.32 -174 209 C-180.625 213 -180.625 213 -184 213 C-184 213.66 -184 214.32 -184 215 C-185.28913487 215.67154933 -186.58140204 216.33708859 -187.875 217 C-188.95394531 217.556875 -188.95394531 217.556875 -190.0546875 218.125 C-192 219 -192 219 -194 219 C-194 219.66 -194 220.32 -194 221 C-194.99 221 -195.98 221 -197 221 C-197 221.66 -197 222.32 -197 223 C-202.75 226 -202.75 226 -205 226 C-205.30150428 212.97005046 -205.53233964 199.94093314 -205.67355824 186.90820312 C-205.74134673 180.85600405 -205.83324151 174.8061946 -205.98071289 168.75537109 C-206.12220557 162.91314334 -206.19973939 157.07320971 -206.23340416 151.22940063 C-206.25738504 149.00277577 -206.30422104 146.77627364 -206.37449074 144.55062866 C-206.88933936 127.56480717 -206.88933936 127.56480717 -203.72643661 123.27111816 C-199.30300986 119.2431521 -193.79965955 117.22892477 -188 116 C-188 115.34 -188 114.68 -188 114 C-187.46890625 113.74605469 -186.9378125 113.49210937 -186.390625 113.23046875 C-183.3066615 111.72788069 -180.43049859 110.32578272 -177.6875 108.25 C-176 107 -176 107 -173 107 C-173 106.34 -173 105.68 -173 105 C-170.525 104.505 -170.525 104.505 -168 104 C-168 103.34 -168 102.68 -168 102 C-166.98397705 101.42475586 -165.9679541 100.84951172 -164.92114258 100.25683594 C-161.32559552 98.2018507 -157.78923441 96.06070346 -154.26171875 93.890625 C-153.01770366 93.12870124 -151.77355941 92.36698834 -150.52929688 91.60546875 C-148.59465535 90.42020722 -146.66088867 89.23360389 -144.72924805 88.04345703 C-142.84666853 86.88432762 -140.96077117 85.73077358 -139.07421875 84.578125 C-137.39718872 83.54800293 -137.39718872 83.54800293 -135.6862793 82.49707031 C-133 81 -133 81 -131 81 C-131 80.34 -131 79.68 -131 79 C-129.71086513 78.32845067 -128.41859796 77.66291141 -127.125 77 C-126.40570312 76.62875 -125.68640625 76.2575 -124.9453125 75.875 C-123 75 -123 75 -121 75 C-121 74.34 -121 73.68 -121 73 C-119.04394531 71.62719727 -119.04394531 71.62719727 -116.328125 70.06640625 C-115.35359375 69.49986328 -114.3790625 68.93332031 -113.375 68.34960938 C-112.34375 67.75986328 -111.3125 67.17011719 -110.25 66.5625 C-108.23316244 65.39923519 -106.217492 64.23394397 -104.203125 63.06640625 C-103.30239258 62.55021729 -102.40166016 62.03402832 -101.47363281 61.50219727 C-98.98989274 60.06347984 -98.98989274 60.06347984 -96.86230469 58.30834961 C-95 57 -95 57 -92 57 C-92 56.34 -92 55.68 -92 55 C-89.09451118 52.95830515 -87.59857954 52 -84 52 C-84 51.34 -84 50.68 -84 50 C-82.56705502 49.15885829 -81.12845595 48.32734313 -79.6875 47.5 C-78.88699219 47.0359375 -78.08648438 46.571875 -77.26171875 46.09375 C-75 45 -75 45 -72 45 C-71.67 44.01 -71.34 43.02 -71 42 C-68.953125 40.67578125 -68.953125 40.67578125 -66.25 39.3125 C-58.25849402 35.12944609 -50.42247682 30.56766809 -43.125 25.25 C-39.87036106 22.90665996 -36.50571666 20.92922395 -33 19 C-32.21753906 18.55140625 -31.43507813 18.1028125 -30.62890625 17.640625 C-29.82324219 17.18171875 -29.01757812 16.7228125 -28.1875 16.25 C-27.43855469 15.82203125 -26.68960938 15.3940625 -25.91796875 14.953125 C-24 14 -24 14 -22 14 C-22 13.34 -22 12.68 -22 12 C-19.63041318 10.42921729 -17.27216528 8.97880959 -14.8125 7.5625 C-14.13896484 7.16740234 -13.46542969 6.77230469 -12.77148438 6.36523438 C-11.45365913 5.59253879 -10.13355696 4.82371131 -8.81103516 4.05908203 C-7.23660564 3.1383655 -5.68443465 2.17979077 -4.13671875 1.21484375 C-2 0 -2 0 0 0 Z " fill="#FCFDFC" transform="translate(716,378)"/>
<path d="M0 0 C2.8812154 1.3478228 5.06537879 3.02212972 7.4921875 5.078125 C10.71064722 7.86444375 10.71064722 7.86444375 14.3046875 10.078125 C14.3046875 10.738125 14.3046875 11.398125 14.3046875 12.078125 C14.9028125 12.366875 15.5009375 12.655625 16.1171875 12.953125 C18.3046875 14.078125 18.3046875 14.078125 21.3046875 16.078125 C21.3046875 16.738125 21.3046875 17.398125 21.3046875 18.078125 C21.86414063 18.32820312 22.42359375 18.57828125 23 18.8359375 C25.67616234 20.27834364 27.83576002 22.01810699 30.1796875 23.953125 C33.01936909 26.27611896 35.80019214 28.47567189 38.9296875 30.390625 C39.7134375 30.9475 40.4971875 31.504375 41.3046875 32.078125 C41.3046875 33.068125 41.3046875 34.058125 41.3046875 35.078125 C41.8409375 35.325625 42.3771875 35.573125 42.9296875 35.828125 C45.8870857 37.38465037 48.60192801 39.11248173 51.3046875 41.078125 C51.3046875 41.738125 51.3046875 42.398125 51.3046875 43.078125 C52.6246875 43.078125 53.9446875 43.078125 55.3046875 43.078125 C55.3046875 43.738125 55.3046875 44.398125 55.3046875 45.078125 C55.9646875 45.078125 56.6246875 45.078125 57.3046875 45.078125 C57.6346875 45.738125 57.9646875 46.398125 58.3046875 47.078125 C59.2946875 47.408125 60.2846875 47.738125 61.3046875 48.078125 C61.3046875 48.738125 61.3046875 49.398125 61.3046875 50.078125 C62.1090625 50.34625 62.9134375 50.614375 63.7421875 50.890625 C64.5878125 51.2825 65.4334375 51.674375 66.3046875 52.078125 C66.6346875 53.068125 66.9646875 54.058125 67.3046875 55.078125 C68.62800546 55.44922938 69.96389107 55.77620807 71.3046875 56.078125 C73.4453125 57.41796875 73.4453125 57.41796875 75.5546875 59.015625 C76.26109375 59.54027344 76.9675 60.06492187 77.6953125 60.60546875 C78.49195313 61.33443359 78.49195313 61.33443359 79.3046875 62.078125 C79.3046875 62.738125 79.3046875 63.398125 79.3046875 64.078125 C80.6246875 64.408125 81.9446875 64.738125 83.3046875 65.078125 C83.3046875 65.738125 83.3046875 66.398125 83.3046875 67.078125 C83.8615625 67.34625 84.4184375 67.614375 84.9921875 67.890625 C87.51694084 69.18711996 89.94183234 70.50288823 92.3046875 72.078125 C92.3046875 72.738125 92.3046875 73.398125 92.3046875 74.078125 C92.87960937 74.34882812 93.45453125 74.61953125 94.046875 74.8984375 C96.33751933 76.09527935 98.34709076 77.42483157 100.4296875 78.953125 C101.11289062 79.44554687 101.79609375 79.93796875 102.5 80.4453125 C104.4267635 82.18857471 105.30611978 83.70009259 106.3046875 86.078125 C105.55445313 86.50222656 104.80421875 86.92632813 104.03125 87.36328125 C98.9524507 90.27367632 93.9918059 93.21416921 89.2421875 96.640625 C84.91717087 99.75184664 80.41172786 102.25066467 75.70703125 104.73828125 C72.98178069 106.25821774 70.69824948 108.08349002 68.3046875 110.078125 C66.66066589 111.04519653 65.01454557 112.00964589 63.34375 112.9296875 C59.98352779 114.82222645 56.72067106 116.8774246 53.44140625 118.90625 C51.3046875 120.078125 51.3046875 120.078125 49.3046875 120.078125 C49.3046875 120.738125 49.3046875 121.398125 49.3046875 122.078125 C46.39919868 124.11981985 44.90326704 125.078125 41.3046875 125.078125 C41.3046875 125.738125 41.3046875 126.398125 41.3046875 127.078125 C40.3559375 127.59375 39.4071875 128.109375 38.4296875 128.640625 C35.25205657 130.44814381 32.28361835 132.46007783 29.3046875 134.578125 C18.70791331 142.078125 18.70791331 142.078125 14.3046875 142.078125 C13.9746875 143.068125 13.6446875 144.058125 13.3046875 145.078125 C10.19351609 147.05796135 8.27478966 148.16631611 4.5546875 147.828125 C2.3046875 147.078125 2.3046875 147.078125 0.3046875 146.078125 C0.3046875 145.418125 0.3046875 144.758125 0.3046875 144.078125 C-0.71625 143.7378125 -0.71625 143.7378125 -1.7578125 143.390625 C-5.82886292 141.57164503 -10.64060234 139.18754532 -12.6953125 135.078125 C-13.6853125 134.748125 -14.6753125 134.418125 -15.6953125 134.078125 C-15.6953125 133.418125 -15.6953125 132.758125 -15.6953125 132.078125 C-17.0153125 131.748125 -18.3353125 131.418125 -19.6953125 131.078125 C-19.6953125 130.418125 -19.6953125 129.758125 -19.6953125 129.078125 C-20.42363281 128.82160156 -21.15195312 128.56507813 -21.90234375 128.30078125 C-24.82335205 127.02207412 -26.91543716 125.52220019 -29.3828125 123.515625 C-32.38307571 121.05340069 -32.38307571 121.05340069 -35.6953125 119.078125 C-35.6953125 118.418125 -35.6953125 117.758125 -35.6953125 117.078125 C-36.3346875 116.81 -36.9740625 116.541875 -37.6328125 116.265625 C-39.6953125 115.078125 -39.6953125 115.078125 -40.6953125 112.078125 C-41.8090625 111.9853125 -41.8090625 111.9853125 -42.9453125 111.890625 C-45.6953125 111.078125 -45.6953125 111.078125 -47.5078125 108.765625 C-50.02716876 105.67041588 -52.23664591 104.62803044 -55.7890625 102.984375 C-58.01253038 101.9273165 -59.87843379 100.74359715 -61.6953125 99.078125 C-61.6953125 98.418125 -61.6953125 97.758125 -61.6953125 97.078125 C-62.28376953 96.79976807 -62.87222656 96.52141113 -63.47851562 96.23461914 C-65.55385995 95.15192024 -67.30331866 93.98678286 -69.1640625 92.57421875 C-69.81157471 92.0853418 -70.45908691 91.59646484 -71.1262207 91.09277344 C-71.809021 90.57231445 -72.49182129 90.05185547 -73.1953125 89.515625 C-73.90582764 88.9784082 -74.61634277 88.44119141 -75.34838867 87.88769531 C-76.78966852 86.79794318 -78.23002587 85.70696985 -79.66943359 84.61474609 C-87.94197767 78.34005431 -96.27882947 72.15853695 -104.6953125 66.078125 C-104.4765625 64.2578125 -104.4765625 64.2578125 -103.6953125 62.078125 C-101.7265625 60.5859375 -101.7265625 60.5859375 -99.1953125 59.203125 C-95.71383972 57.23921728 -92.36078519 55.2232072 -89.0703125 52.953125 C-78.88445724 46.078125 -78.88445724 46.078125 -74.6953125 46.078125 C-74.6953125 45.418125 -74.6953125 44.758125 -74.6953125 44.078125 C-73.7053125 44.078125 -72.7153125 44.078125 -71.6953125 44.078125 C-71.6953125 43.418125 -71.6953125 42.758125 -71.6953125 42.078125 C-57.46606349 34.078125 -57.46606349 34.078125 -54.6953125 34.078125 C-54.6953125 33.418125 -54.6953125 32.758125 -54.6953125 32.078125 C-52.62266017 30.68200092 -50.56379716 29.42207019 -48.3984375 28.18359375 C-47.74162491 27.79933731 -47.08481232 27.41508087 -46.40809631 27.0191803 C-44.25745396 25.76167501 -42.10145345 24.5136746 -39.9453125 23.265625 C-37.0030043 21.55151662 -34.06459267 19.83089205 -31.12890625 18.10546875 C-30.40120529 17.67787262 -29.67350433 17.25027649 -28.92375183 16.8097229 C-21.97179104 12.69818526 -15.22870409 8.3009918 -8.62402344 3.64916992 C-3.41515777 0.09899008 -3.41515777 0.09899008 0 0 Z " fill="#5AC8BC" transform="translate(710.6953125,591.921875)"/>
<path d="M0 0 C1.32229189 2.64458379 1.09677194 4.67761301 1.0625 7.625 C1.05347656 8.62789062 1.04445313 9.63078125 1.03515625 10.6640625 C1.02355469 11.43492187 1.01195312 12.20578125 1 13 C1.66 13.33 2.32 13.66 3 14 C0.625 13.75 0.625 13.75 -2 13 C-3.28125 11.25 -3.28125 11.25 -4 9 C-3.3203125 6.640625 -3.3203125 6.640625 -2.125 4.25 C-1.73570312 3.45078125 -1.34640625 2.6515625 -0.9453125 1.828125 C-0.63335937 1.22484375 -0.32140625 0.6215625 0 0 Z " fill="#389F98" transform="translate(339,739)"/>
<path d="M0 0 C-1.0975223 2.99324263 -1.67682892 3.84610901 -4.625 5.25 C-5.40875 5.4975 -6.1925 5.745 -7 6 C-7.66 5.34 -8.32 4.68 -9 4 C-2.25 0 -2.25 0 0 0 Z " fill="#8ADAD3" transform="translate(669,510)"/>
<path d="M0 0 C0 0.66 0 1.32 0 2 C-2.8125 4.1875 -2.8125 4.1875 -6 6 C-6.99 5.67 -7.98 5.34 -9 5 C-7.87926138 4.16094435 -6.75325453 3.32892169 -5.625 2.5 C-4.99851562 2.0359375 -4.37203125 1.571875 -3.7265625 1.09375 C-2 0 -2 0 0 0 Z " fill="#92DCD5" transform="translate(680,503)"/>
<path d="M0 0 C3.93673644 1.31224548 6.22719294 2.91910327 9 6 C6.61435923 5.42415568 4.33317216 4.77772405 2 4 C0.8125 1.9375 0.8125 1.9375 0 0 Z " fill="#3CBEAF" transform="translate(305,730)"/>
<path d="M0 0 C2.31 0.66 4.62 1.32 7 2 C7 2.66 7 3.32 7 4 C7.66 4 8.32 4 9 4 C8.67 4.66 8.34 5.32 8 6 C6.66402348 5.19185349 5.331275 4.37836819 4 3.5625 C3.2575 3.11003906 2.515 2.65757812 1.75 2.19140625 C1.1725 1.79824219 0.595 1.40507813 0 1 C0 0.67 0 0.34 0 0 Z " fill="#3BC1B3" transform="translate(418,800)"/>
</svg>
