<?xml version="1.0" encoding="UTF-8"?>
<svg version="1.1" xmlns="http://www.w3.org/2000/svg" width="1024" height="1024">
<path d="M0 0 C337.92 0 675.84 0 1024 0 C1024 337.92 1024 675.84 1024 1024 C686.08 1024 348.16 1024 0 1024 C0 686.08 0 348.16 0 0 Z " fill="#FBFBFB" transform="translate(0,0)"/>
<path d="M0 0 C3.61358939 0.81161503 6.18190567 2.17307251 9.33984375 4.140625 C10.39212158 4.79248779 11.44439941 5.44435059 12.52856445 6.1159668 C13.66493117 6.82722354 14.80124167 7.53857011 15.9375 8.25 C17.11321124 8.9807303 18.28924032 9.71094945 19.46557617 10.44067383 C21.84887107 11.92013534 24.23038537 13.40239683 26.61035156 14.88720703 C30.48874771 17.30464007 34.37498295 19.70916354 38.26269531 22.11157227 C43.35234032 25.25726917 48.43683219 28.41129242 53.52246094 31.56347656 C63.90112161 37.99560448 74.28804923 44.41402973 84.6875 50.8125 C85.77748291 51.48313477 86.86746582 52.15376953 87.99047852 52.84472656 C93.5223058 56.24755359 99.05535661 59.64837584 104.58984375 63.046875 C116.14490852 70.14555255 127.67191087 77.28536698 139.16137695 84.48974609 C146.0120496 88.77771151 152.90083529 92.99866483 159.8125 97.1875 C167.57525228 101.89261554 175.28328921 106.67262214 182.94750977 111.53637695 C195.97599932 119.80038056 209.12317889 127.8707637 222.3125 135.875 C233.24916804 142.5145593 244.10228296 149.28286763 254.93994141 156.08251953 C258.07583225 158.04751767 261.21511371 160.00698885 264.35546875 161.96484375 C265.40549072 162.61976807 266.4555127 163.27469238 267.53735352 163.94946289 C269.51011667 165.17972959 271.48322679 166.40944022 273.45678711 167.63842773 C275.26283533 168.76567564 277.05543192 169.9148572 278.8316803 171.08850098 C281.98412663 173.09635981 281.98412663 173.09635981 285.57824707 174.49281311 C289.70032479 176.33203841 293.26982176 178.32018144 296 182 C298.56905632 189.45566342 297.62366788 197.87558762 297.3671875 205.62890625 C297.34105283 207.94768787 297.32113515 210.26654718 297.30715942 212.58543396 C297.25387797 218.66863062 297.11653104 224.7470949 296.96130371 230.82843018 C296.81769555 237.04186984 296.75406502 243.2560798 296.68359375 249.47070312 C296.53375787 261.64920702 296.29504847 273.824209 296 286 C299.87796556 283.73371343 303.75504407 281.46591823 307.63139343 279.1968689 C308.94331934 278.42918545 310.25546475 277.66187695 311.56785583 276.89498901 C320.70252807 271.55674043 329.78152414 266.13707426 338.8125 260.625 C339.52035141 260.19357697 340.22820282 259.76215393 340.95750427 259.31765747 C342.55269766 258.34507435 344.14746236 257.3717882 345.7421875 256.3984375 C353.59992371 251.61363618 361.51900312 246.93327888 369.4375 242.25 C379.08385665 236.54246685 388.68690961 230.78053658 398.19750977 224.84838867 C405.38980787 220.36407888 412.62701573 215.95593067 419.875 211.5625 C420.47266174 211.20010223 421.07032349 210.83770447 421.68609619 210.46432495 C424.66223043 208.65973124 427.63864683 206.8556037 430.61523438 205.05175781 C435.62082021 202.0175005 440.62397406 198.97926656 445.625 195.9375 C446.54216797 195.37973877 447.45933594 194.82197754 448.40429688 194.24731445 C454.61568149 190.46489331 460.80927296 186.65430656 466.99755859 182.83422852 C475.63408949 177.5046012 484.27216469 172.17923866 493 167 C493.69399902 166.58459961 494.38799805 166.16919922 495.10302734 165.74121094 C499.76164698 163 499.76164698 163 502 163 C501.96447021 161.70675812 501.92894043 160.41351624 501.89233398 159.08108521 C501.56744794 146.87061967 501.32789802 134.66103439 501.17100525 122.44722176 C501.08762567 116.16805538 500.97463946 109.892387 500.79296875 103.61523438 C500.61860784 97.55243737 500.52335825 91.49299431 500.48196411 85.42788315 C500.4524853 83.11900885 500.39490796 80.81031085 500.30831909 78.50287247 C499.67439756 60.90373991 499.67439756 60.90373991 503.53878021 56.07868385 C507.28590235 52.83940949 511.4344031 50.76764879 515.98468113 48.88213444 C519.09628744 47.52013901 521.84183924 45.72873923 524.703125 43.90234375 C526.88480049 42.57971224 529.067106 41.25811948 531.25 39.9375 C532.44661457 39.21212965 533.64314558 38.48662144 534.83959961 37.76098633 C540.40244994 34.38779943 545.96798106 31.01905626 551.53497314 27.65270996 C554.54488706 25.83219184 557.55375247 24.0099449 560.5625 22.1875 C561.14477356 21.83510254 561.72704712 21.48270508 562.32696533 21.11962891 C570.78987305 15.99507688 579.19285843 10.78407052 587.49438477 5.40112305 C592.78858003 2 592.78858003 2 595 2 C595.23356456 29.25948855 595.40992559 56.51882723 595.51812172 83.77911472 C595.56969377 96.43649804 595.64000805 109.09325978 595.75439453 121.75024414 C595.85404252 132.78165359 595.9185763 143.81261294 595.94088495 154.84445995 C595.95392665 160.68645534 595.98458928 166.52716303 596.05730057 172.3687458 C596.12519146 177.86762431 596.14611407 183.3646853 596.13107681 188.8639431 C596.13382747 190.88163763 596.15371555 192.89939304 596.19205475 194.91672516 C596.46789089 210.17964506 596.46789089 210.17964506 592.81120682 214.71435738 C590.26129961 216.53132646 587.88050536 217.7962014 585 219 C583.39801758 220.03398926 583.39801758 220.03398926 581.76367188 221.08886719 C580.84134766 221.65250977 579.91902344 222.21615234 578.96875 222.796875 C577.92033936 223.43971436 576.87192871 224.08255371 575.79174805 224.74487305 C574.70547119 225.40656494 573.61919434 226.06825684 572.5 226.75 C571.34333004 227.45780195 570.18683825 228.16589514 569.03051758 228.87426758 C565.68931423 230.91995776 562.34487382 232.96031636 559 235 C557.34757235 236.0089772 555.69521877 237.0180757 554.04296875 238.02734375 C551.87888647 239.34916416 549.7147413 240.67087829 547.55004883 241.99169922 C541.91622803 245.4319164 536.29963774 248.89954152 530.6875 252.375 C529.82302246 252.9097998 528.95854492 253.44459961 528.06787109 253.99560547 C523.39392496 256.88924786 518.72788404 259.79491053 514.0703125 262.71484375 C513.10649658 263.31699707 512.14268066 263.91915039 511.1496582 264.53955078 C509.28911623 265.7022094 507.43079501 266.868431 505.57495117 268.03857422 C504.7419751 268.55822754 503.90899902 269.07788086 503.05078125 269.61328125 C502.31512939 270.07516846 501.57947754 270.53705566 500.8215332 271.01293945 C499 272 499 272 497 272 C497 272.99 497 273.98 497 275 C497.58990723 275.27529541 498.17981445 275.55059082 498.78759766 275.83422852 C500.9018124 276.94826244 502.56316342 278.13192184 504.3984375 279.65234375 C505.03523438 280.17570312 505.67203125 280.6990625 506.328125 281.23828125 C507.34132813 282.07939453 507.34132813 282.07939453 508.375 282.9375 C509.81953475 284.12464492 511.26486093 285.31082742 512.7109375 286.49609375 C513.4337793 287.08890137 514.15662109 287.68170898 514.90136719 288.29248047 C517.90334712 290.73499416 520.94738755 293.12128363 524 295.5 C529.07284547 299.45869211 534.07978731 303.4910204 539.0625 307.5625 C544.87219429 312.30667902 550.75895927 316.9243237 556.72265625 321.47265625 C560.35932856 324.26014512 563.9296129 327.12840426 567.5 330 C572.15004088 333.73808189 576.82548463 337.43521262 581.5625 341.0625 C582.59890625 341.85914063 583.6353125 342.65578125 584.703125 343.4765625 C586.43854835 344.80832511 588.17784627 346.13424233 589.92382812 347.45214844 C591.89303275 348.93915779 593.85312423 350.43757435 595.8125 351.9375 C596.4300415 352.39842041 597.04758301 352.85934082 597.68383789 353.33422852 C599.1790624 354.48632173 600.59769366 355.7364526 602 357 C602 357.99 602 358.98 602 360 C600.09838867 361.52709961 600.09838867 361.52709961 597.41796875 363.15234375 C596.43272217 363.75780029 595.44747559 364.36325684 594.43237305 364.98706055 C593.36156494 365.63070557 592.29075684 366.27435059 591.1875 366.9375 C588.96847119 368.29641982 586.7497243 369.6558001 584.53125 371.015625 C583.42265625 371.69044922 582.3140625 372.36527344 581.171875 373.06054688 C576.81493382 375.72461251 572.49858733 378.45008335 568.1875 381.1875 C566.64334342 382.16424315 565.09907321 383.14080668 563.5546875 384.1171875 C562.03640999 385.07804862 560.51818062 386.0389858 559 387 C555.93798476 388.93826749 552.87553127 390.87583851 549.8125 392.8125 C549.04631348 393.29710693 548.28012695 393.78171387 547.49072266 394.28100586 C542.96664761 397.13858494 538.43286356 399.9799664 533.890625 402.80859375 C532.84656494 403.45916748 531.80250488 404.10974121 530.72680664 404.7800293 C528.63607024 406.08163813 526.5441309 407.38131693 524.45092773 408.67895508 C518.25396123 412.53523736 512.21528339 416.50259186 506.3671875 420.875 C503.03831769 422.45703714 501.49429314 422.14445716 498 421 C495.46269824 419.3951159 493.2176864 417.5101219 490.9375 415.5625 C489.59589587 414.45340561 488.25343484 413.34534703 486.91015625 412.23828125 C486.2464502 411.6860791 485.58274414 411.13387695 484.89892578 410.56494141 C480.04715854 406.56650633 474.99903488 402.81128114 470 399 C468.3606458 397.74743678 466.72132547 396.49482923 465.08203125 395.2421875 C456.93498106 389.02193074 448.77687646 382.8186303 440.5625 376.6875 C433.92875215 371.73139402 427.409141 366.64246914 420.91162109 361.50976562 C417.2587842 358.62481756 413.60140972 355.74587579 409.9375 352.875 C409.24221191 352.32537598 408.54692383 351.77575195 407.83056641 351.20947266 C403.3928441 347.73856546 398.8448787 344.47037548 394.20532227 341.27783203 C393.60655525 340.86461197 393.00778824 340.45139191 392.39087677 340.02565002 C390.92787483 339.01619556 389.46402447 338.0079709 388 337 C388.0040642 337.77176103 388.0081284 338.54352205 388.01231575 339.33866978 C388.10781333 358.12630075 388.14805649 376.91330859 388.12697029 395.70118046 C388.11810236 404.7869993 388.12786415 413.87208183 388.18164062 422.95776367 C388.228471 430.87789746 388.24018638 438.79717611 388.2099179 446.71740431 C388.19511426 450.91065214 388.19777003 455.10223472 388.24249649 459.29530525 C388.28407192 463.24502676 388.27857444 467.1919286 388.23747826 471.14162827 C388.23062827 472.58839999 388.240756 474.03537071 388.26943016 475.48187447 C388.4713054 486.38290573 388.4713054 486.38290573 384.85648727 490.35590935 C382.30858858 492.16969316 379.79543826 493.6054676 377 495 C375.43201686 495.9511429 373.86966694 496.91171866 372.31640625 497.88671875 C370.73363274 498.82346563 369.1489375 499.75697179 367.5625 500.6875 C360.84741463 504.66818251 354.20326783 508.73471777 347.625 512.9375 C339.85954039 517.88972911 331.97517215 522.61253837 324.02050781 527.25415039 C319.69174902 529.78722168 315.40203303 532.35231204 311.19140625 535.078125 C310.45752686 535.55169434 309.72364746 536.02526367 308.9675293 536.51318359 C307.61148372 537.39569698 306.2621616 538.288664 304.92114258 539.19384766 C300.61604613 541.99399565 300.61604613 541.99399565 297.99609375 542.01953125 C294.9423839 540.4598086 292.06314078 538.67250738 289.1875 536.8125 C287.74565668 535.89577349 286.30289349 534.98049269 284.859375 534.06640625 C284.07884766 533.57156738 283.29832031 533.07672852 282.49414062 532.56689453 C278.00467671 529.7464776 273.46986197 527.00075147 268.9375 524.25 C267.96103516 523.65662842 266.98457031 523.06325684 265.97851562 522.4519043 C262.9861199 520.63387262 259.99309271 518.81688392 257 517 C243.8745968 509.02876231 230.7724397 501.02159204 217.69873047 492.96582031 C206.82449714 486.26875565 195.91511818 479.63014815 185 473 C171.87805537 465.02936373 158.77664842 457.02721748 145.70751953 448.97021484 C138.50935984 444.53537551 131.29147303 440.13438767 124.0625 435.75 C115.63028482 430.63077343 107.2669447 425.41329014 98.9375 420.12890625 C86.0034115 411.92377792 73.03969129 403.7684257 59.875 395.9375 C50.01686952 390.07045944 40.35519489 383.91203888 30.69726562 377.72265625 C25.6241291 374.48260815 20.52647003 371.28121831 15.42749023 368.08203125 C14.03885004 367.20792835 12.6584794 366.32046364 11.2891683 365.41638148 C9.0420593 363.96045119 9.0420593 363.96045119 6.65311581 362.92517412 C3.93166358 361.53593087 2.06418679 360.26725251 0 358 C-1.34478685 353.27027527 -1.17794309 348.56317436 -1.08229065 343.68740845 C-1.0862165 342.20553643 -1.09409893 340.7236705 -1.10559314 339.24183786 C-1.12571514 335.17282907 -1.08973005 331.10595292 -1.04459059 327.03721595 C-1.00572791 322.6487334 -1.01887642 318.26037135 -1.02571106 313.87176514 C-1.03043058 306.26937987 -1.00219127 298.6676897 -0.95157051 291.06547928 C-0.87842984 280.07408137 -0.85498795 269.08301961 -0.84367859 258.09140472 C-0.82398032 240.25849984 -0.76408462 222.42596544 -0.67895508 204.59326172 C-0.59634522 187.27036391 -0.53263886 169.94756673 -0.49438477 152.62451172 C-0.49202025 151.55674364 -0.48965574 150.48897557 -0.48721958 149.38885088 C-0.47547425 144.03217781 -0.46410088 138.67550403 -0.45291245 133.31882977 C-0.35961011 88.87896322 -0.20109035 44.43950073 0 0 Z " fill="#616161" transform="translate(214,320)"/>
<path d="M0 0 C3.53927702 1.37160432 6.71550193 3.21487809 9.9453125 5.18359375 C11.04311035 5.84137817 11.04311035 5.84137817 12.16308594 6.51245117 C14.63719485 7.99881652 17.10395789 9.49690049 19.5703125 10.99609375 C21.40098166 12.10296383 23.23171272 13.20973155 25.0625 14.31640625 C35.48332056 20.62951585 45.85623441 27.01827912 56.20678711 33.44580078 C61.83998512 36.93938171 67.50527595 40.37270705 73.19921875 43.76611328 C77.52464893 46.35079289 81.80437982 49.00201225 86.0703125 51.68359375 C92.49413305 55.72036028 98.96036321 59.68333125 105.4453125 63.62109375 C121.41073544 73.32010152 137.37402584 83.02624902 153.1328125 93.05859375 C161.43242766 98.34098679 169.86377205 103.39083007 178.31274414 108.42993164 C185.38896112 112.65987322 192.37975866 117.00160523 199.328125 121.4375 C205.83889872 125.57570363 212.4448567 129.5446805 219.0703125 133.49609375 C227.39338695 138.46084513 235.6459224 143.51309954 243.8203125 148.71875 C249.03526199 152.03735422 254.28743296 155.28682489 259.5703125 158.49609375 C268.27117171 163.78560287 276.88422271 169.20861899 285.47900391 174.66845703 C287.37620829 175.87286953 289.27546332 177.07394604 291.17578125 178.2734375 C292.17222656 178.90378906 293.16867187 179.53414062 294.1953125 180.18359375 C295.03320312 180.71339844 295.87109375 181.24320313 296.734375 181.7890625 C298.5703125 182.99609375 298.5703125 182.99609375 299.5703125 183.99609375 C299.66817075 186.71463132 299.70024816 189.40775522 299.69056702 192.12672424 C299.69142144 192.98920822 299.69227587 193.85169219 299.69315618 194.74031204 C299.69481364 197.65314856 299.6892853 200.56592848 299.68383789 203.47875977 C299.68355605 205.55769855 299.68371369 207.63663744 299.6842804 209.71557617 C299.68456849 215.37856814 299.67866981 221.04153912 299.67170644 226.70452619 C299.66547491 232.61559268 299.66486926 238.52665961 299.66368103 244.43772888 C299.66056712 255.6397707 299.65235293 266.84180281 299.64233154 278.04384035 C299.63117225 290.79331738 299.62566042 303.54279486 299.62063611 316.29227555 C299.61017036 342.52688701 299.59256977 368.76148984 299.5703125 394.99609375 C299.2403125 394.99609375 298.9103125 394.99609375 298.5703125 394.99609375 C298.5703125 325.69609375 298.5703125 256.39609375 298.5703125 184.99609375 C281.85359588 195.16730406 281.85359588 195.16730406 265.1953125 205.43359375 C256.64949965 210.73611618 248.049834 215.94132391 239.41259766 221.09350586 C237.39921613 222.29573717 235.41898965 223.55440636 233.46606445 224.85253906 C230.33473695 226.77985765 227.25594151 227.7060309 223.72729492 228.70996094 C216.70278492 231.13794936 210.10597696 234.08901935 206.5703125 240.99609375 C201.92224698 256.50873396 204.01446714 274.67002331 204.52746582 290.63140869 C204.70325752 296.87181018 204.74721597 303.11304371 204.80273438 309.35546875 C204.93060299 321.57334253 205.2037814 333.7832105 205.5703125 345.99609375 C204.47531433 346.60952637 203.38031616 347.22295898 202.25213623 347.85498047 C200.79925093 348.67020322 199.3463918 349.48547262 197.89355469 350.30078125 C197.17376434 350.70385498 196.453974 351.10692871 195.71237183 351.5222168 C190.32707439 354.54613533 185.04448849 357.70113409 179.8203125 360.99609375 C171.54645503 366.16483485 163.22810552 371.25627736 154.8828125 376.30859375 C145.75687365 381.83619174 136.65139713 387.39494889 127.5703125 392.99609375 C107.99036519 405.06354707 88.32952324 416.98243832 68.53799438 428.69924927 C59.03529516 434.32597349 49.56620173 440.00393719 40.1328125 445.74609375 C38.99302144 446.43940485 37.85321042 447.13268313 36.71337891 447.82592773 C34.46822089 449.19166465 32.22310337 450.55746814 29.97802734 451.92333984 C28.85348145 452.60734863 27.72893555 453.29135742 26.5703125 453.99609375 C25.97961975 454.35544006 25.388927 454.71478638 24.78033447 455.08502197 C20.67270165 457.5829385 16.55997529 460.07227424 12.4453125 462.55859375 C11.37740479 463.20860352 10.30949707 463.85861328 9.20922852 464.52832031 C8.23268311 465.11709961 7.2561377 465.70587891 6.25 466.3125 C5.39132324 466.83271729 4.53264648 467.35293457 3.64794922 467.88891602 C1.5703125 468.99609375 1.5703125 468.99609375 -0.4296875 468.99609375 C-0.38447968 467.72870361 -0.33927185 466.46131348 -0.29269409 465.15551758 C0.11812077 453.1529986 0.38891297 441.15418878 0.52627754 429.14533997 C0.60130375 422.97154043 0.72380316 416.80665832 0.95898438 410.63671875 C3.42674558 384.85069247 3.42674558 384.85069247 -3.93395996 361.23632812 C-9.53892517 355.4445243 -16.69446224 352.57854086 -24.26025391 350.12594604 C-28.96999597 348.44699846 -32.84164253 345.82141696 -36.9296875 342.99609375 C-38.44151511 342.02919287 -39.95674644 341.06757637 -41.4765625 340.11328125 C-42.26095703 339.61795898 -43.04535156 339.12263672 -43.85351562 338.61230469 C-57.27576792 330.19159675 -70.82132717 321.96586923 -84.3671875 313.74609375 C-92.08932454 309.0587342 -99.75736159 304.29563585 -107.38427734 299.45507812 C-118.75336194 292.2425099 -130.22436062 285.19358221 -141.6953125 278.14453125 C-143.87762109 276.80341296 -146.05991252 275.46226674 -148.2421875 274.12109375 C-149.33644043 273.44868652 -150.43069336 272.7762793 -151.55810547 272.08349609 C-158.93269216 267.54670855 -166.28162048 262.97065366 -173.6171875 258.37109375 C-182.36710539 252.8860706 -191.16334886 247.48323411 -199.99243164 242.12670898 C-208.9823001 236.67019875 -217.92429502 231.13821887 -226.85888672 225.59179688 C-231.11002704 222.95310237 -235.36342087 220.31805173 -239.6171875 217.68359375 C-240.46780762 217.15644775 -241.31842773 216.62930176 -242.19482422 216.08618164 C-247.10061523 213.04833346 -252.01357167 210.0225638 -256.93359375 207.0078125 C-259.18241776 205.6291119 -261.43111532 204.25020502 -263.6796875 202.87109375 C-264.77764648 202.19771973 -265.87560547 201.5243457 -267.00683594 200.83056641 C-274.22537832 196.38963597 -281.380874 191.86522054 -288.44433594 187.18115234 C-291.09532432 185.43462689 -293.40190186 184.00535563 -296.4296875 182.99609375 C-296.4296875 301.13609375 -296.4296875 419.27609375 -296.4296875 540.99609375 C-296.7596875 540.99609375 -297.0896875 540.99609375 -297.4296875 540.99609375 C-297.81882752 495.43221927 -298.11836494 449.86852072 -298.2977981 404.30331201 C-298.31906003 398.92355946 -298.34106351 393.54381017 -298.36352539 388.1640625 C-298.36798467 387.0930549 -298.37244395 386.0220473 -298.37703835 384.91858493 C-298.45100489 367.57837438 -298.58503713 350.23912226 -298.74128503 332.89948024 C-298.90028196 315.10631651 -298.99469035 297.31365457 -299.02919191 279.5198096 C-299.05251571 268.54002387 -299.12615817 257.56294689 -299.26426744 246.58399515 C-299.35415842 239.05441368 -299.38128513 231.52623152 -299.35921092 223.99615248 C-299.34832225 219.65088489 -299.36494677 215.31034647 -299.45618057 210.9659214 C-299.96390196 185.55807372 -299.96390196 185.55807372 -295.76865268 179.66141653 C-291.8271169 176.09114136 -287.53606022 174.2246813 -282.493595 172.69393039 C-279.37962436 171.64105239 -276.94614265 169.9892987 -274.22265625 168.16015625 C-273.29791504 167.57758057 -272.37317383 166.99500488 -271.42041016 166.39477539 C-270.49534668 165.80946045 -269.5702832 165.22414551 -268.6171875 164.62109375 C-261.30695661 160.02399193 -253.97299064 155.47929684 -246.5546875 151.05859375 C-237.74324797 145.80740387 -229.00406856 140.44393473 -220.27392578 135.05883789 C-213.17360194 130.68056494 -206.05934065 126.3264271 -198.9296875 121.99609375 C-182.03872568 111.73243245 -165.21960351 101.35189465 -148.41943359 90.94042969 C-138.1451801 84.5757783 -127.84838978 78.24773228 -117.55322266 71.91699219 C-110.12726 67.35020508 -102.70270255 62.78114433 -95.28125 58.20703125 C-84.70316961 51.68941957 -74.11546416 45.18988325 -63.4921875 38.74609375 C-50.40588536 30.79876098 -37.47105753 22.62588944 -24.6171875 14.30859375 C-23.92415527 13.86201416 -23.23112305 13.41543457 -22.51708984 12.95532227 C-19.12796282 10.76672863 -15.76358054 8.55115831 -12.43359375 6.2734375 C-11.79977783 5.84699951 -11.16596191 5.42056152 -10.51293945 4.98120117 C-9.32733702 4.18243133 -8.1494209 3.37207935 -6.98120117 2.5480957 C-4.58542412 0.94786154 -2.91519894 -0.00468682 0 0 Z " fill="#CCCCCC" transform="translate(510.4296875,137.00390625)"/>
<path d="M0 0 C0.23356456 27.25948855 0.40992559 54.51882723 0.51812172 81.77911472 C0.56969377 94.43649804 0.64000805 107.09325978 0.75439453 119.75024414 C0.85404252 130.78165359 0.9185763 141.81261294 0.94088495 152.84445995 C0.95392665 158.68645534 0.98458928 164.52716303 1.05730057 170.3687458 C1.12519146 175.86762431 1.14611407 181.3646853 1.13107681 186.8639431 C1.13382747 188.88163763 1.15371555 190.89939304 1.19205475 192.91672516 C1.46789089 208.17964506 1.46789089 208.17964506 -2.18879318 212.71435738 C-4.73870039 214.53132646 -7.11949464 215.7962014 -10 217 C-11.60198242 218.03398926 -11.60198242 218.03398926 -13.23632812 219.08886719 C-14.61981445 219.93433105 -14.61981445 219.93433105 -16.03125 220.796875 C-17.07966064 221.43971436 -18.12807129 222.08255371 -19.20825195 222.74487305 C-20.29452881 223.40656494 -21.38080566 224.06825684 -22.5 224.75 C-23.65666996 225.45780195 -24.81316175 226.16589514 -25.96948242 226.87426758 C-29.31068577 228.91995776 -32.65512618 230.96031636 -36 233 C-37.65242765 234.0089772 -39.30478123 235.0180757 -40.95703125 236.02734375 C-43.12111353 237.34916416 -45.2852587 238.67087829 -47.44995117 239.99169922 C-53.08377197 243.4319164 -58.70036226 246.89954152 -64.3125 250.375 C-65.17697754 250.9097998 -66.04145508 251.44459961 -66.93212891 251.99560547 C-71.60607504 254.88924786 -76.27211596 257.79491053 -80.9296875 260.71484375 C-81.89350342 261.31699707 -82.85731934 261.91915039 -83.8503418 262.53955078 C-85.71088377 263.7022094 -87.56920499 264.868431 -89.42504883 266.03857422 C-90.2580249 266.55822754 -91.09100098 267.07788086 -91.94921875 267.61328125 C-92.68487061 268.07516846 -93.42052246 268.53705566 -94.1784668 269.01293945 C-96 270 -96 270 -98 270 C-98 270.99 -98 271.98 -98 273 C-97.41009277 273.27529541 -96.82018555 273.55059082 -96.21240234 273.83422852 C-94.0981876 274.94826244 -92.43683658 276.13192184 -90.6015625 277.65234375 C-89.96476563 278.17570312 -89.32796875 278.6990625 -88.671875 279.23828125 C-87.65867187 280.07939453 -87.65867187 280.07939453 -86.625 280.9375 C-85.18046525 282.12464492 -83.73513907 283.31082742 -82.2890625 284.49609375 C-81.5662207 285.08890137 -80.84337891 285.68170898 -80.09863281 286.29248047 C-77.09665288 288.73499416 -74.05261245 291.12128363 -71 293.5 C-65.92715453 297.45869211 -60.92021269 301.4910204 -55.9375 305.5625 C-50.12780571 310.30667902 -44.24104073 314.9243237 -38.27734375 319.47265625 C-34.64067144 322.26014512 -31.0703871 325.12840426 -27.5 328 C-22.84995912 331.73808189 -18.17451537 335.43521262 -13.4375 339.0625 C-12.40109375 339.85914063 -11.3646875 340.65578125 -10.296875 341.4765625 C-8.56145165 342.80832511 -6.82215373 344.13424233 -5.07617188 345.45214844 C-3.10696725 346.93915779 -1.14687577 348.43757435 0.8125 349.9375 C1.4300415 350.39842041 2.04758301 350.85934082 2.68383789 351.33422852 C4.1790624 352.48632173 5.59769366 353.7364526 7 355 C7 355.99 7 356.98 7 358 C5.09838867 359.52709961 5.09838867 359.52709961 2.41796875 361.15234375 C1.43272217 361.75780029 0.44747559 362.36325684 -0.56762695 362.98706055 C-1.63843506 363.63070557 -2.70924316 364.27435059 -3.8125 364.9375 C-6.03152881 366.29641982 -8.2502757 367.6558001 -10.46875 369.015625 C-11.57734375 369.69044922 -12.6859375 370.36527344 -13.828125 371.06054688 C-18.18506618 373.72461251 -22.50141267 376.45008335 -26.8125 379.1875 C-28.35665658 380.16424315 -29.90092679 381.14080668 -31.4453125 382.1171875 C-32.96359001 383.07804862 -34.48181938 384.0389858 -36 385 C-39.06201524 386.93826749 -42.12446873 388.87583851 -45.1875 390.8125 C-45.95368652 391.29710693 -46.71987305 391.78171387 -47.50927734 392.28100586 C-52.03335239 395.13858494 -56.56713644 397.9799664 -61.109375 400.80859375 C-62.15343506 401.45916748 -63.19749512 402.10974121 -64.27319336 402.7800293 C-66.36392976 404.08163813 -68.4558691 405.38131693 -70.54907227 406.67895508 C-76.74603877 410.53523736 -82.78471661 414.50259186 -88.6328125 418.875 C-91.96168231 420.45703714 -93.50570686 420.14445716 -97 419 C-99.53730176 417.3951159 -101.7823136 415.5101219 -104.0625 413.5625 C-105.40410413 412.45340561 -106.74656516 411.34534703 -108.08984375 410.23828125 C-108.7535498 409.6860791 -109.41725586 409.13387695 -110.10107422 408.56494141 C-114.95284146 404.56650633 -120.00096512 400.81128114 -125 397 C-126.6393542 395.74743678 -128.27867453 394.49482923 -129.91796875 393.2421875 C-138.06501894 387.02193074 -146.22312354 380.8186303 -154.4375 374.6875 C-161.07124785 369.73139402 -167.590859 364.64246914 -174.08837891 359.50976562 C-177.7412158 356.62481756 -181.39859028 353.74587579 -185.0625 350.875 C-185.75778809 350.32537598 -186.45307617 349.77575195 -187.16943359 349.20947266 C-191.6071559 345.73856546 -196.1551213 342.47037548 -200.79467773 339.27783203 C-201.39344475 338.86461197 -201.99221176 338.45139191 -202.60912323 338.02565002 C-204.07212517 337.01619556 -205.53597553 336.0079709 -207 335 C-206.9959358 335.77176103 -206.9918716 336.54352205 -206.98768425 337.33866978 C-206.89218667 356.12630075 -206.85194351 374.91330859 -206.87302971 393.70118046 C-206.88189764 402.7869993 -206.87213585 411.87208183 -206.81835938 420.95776367 C-206.771529 428.87789746 -206.75981362 436.79717611 -206.7900821 444.71740431 C-206.80488574 448.91065214 -206.80222997 453.10223472 -206.75750351 457.29530525 C-206.71592808 461.24502676 -206.72142556 465.1919286 -206.76252174 469.14162827 C-206.76937173 470.58839999 -206.759244 472.03537071 -206.73056984 473.48187447 C-206.5286946 484.38290573 -206.5286946 484.38290573 -210.14351273 488.35590935 C-212.69141142 490.16969316 -215.20456174 491.6054676 -218 493 C-219.56798314 493.9511429 -221.13033306 494.91171866 -222.68359375 495.88671875 C-224.26636726 496.82346563 -225.8510625 497.75697179 -227.4375 498.6875 C-234.15258537 502.66818251 -240.79673217 506.73471777 -247.375 510.9375 C-255.14045961 515.88972911 -263.02482785 520.61253837 -270.97949219 525.25415039 C-275.30825098 527.78722168 -279.59796697 530.35231204 -283.80859375 533.078125 C-284.54247314 533.55169434 -285.27635254 534.02526367 -286.0324707 534.51318359 C-287.38851628 535.39569698 -288.7378384 536.288664 -290.07885742 537.19384766 C-294.52546614 540.08603895 -294.52546614 540.08603895 -297.19482422 539.60205078 C-297.79053223 539.40337402 -298.38624023 539.20469727 -299 539 C-299.23759984 506.68469116 -299.39322525 474.37028942 -299.434863 442.05417437 C-299.43985386 438.23663609 -299.44554159 434.41909914 -299.45166016 430.6015625 C-299.45286651 429.84157884 -299.45407286 429.08159517 -299.45531577 428.2985817 C-299.47649496 416.00231158 -299.55408998 403.70701456 -299.65263933 391.41114892 C-299.75254645 378.78870413 -299.79158429 366.16712225 -299.77444887 353.54428852 C-299.76578806 345.75819912 -299.80425611 337.97530036 -299.90356803 330.18982725 C-299.97470926 324.2134202 -299.96103701 318.24023076 -299.91612434 312.2634449 C-299.91091381 309.8164571 -299.93299992 307.36923272 -299.98466301 304.92278481 C-300.34234954 286.93605581 -300.34234954 286.93605581 -296.4608593 282.07073927 C-292.73665718 278.82544374 -288.62196469 276.77373593 -284.07981873 274.9075315 C-280.66722381 273.41844145 -277.57687654 271.42788541 -274.421875 269.46484375 C-273.16272724 268.71662382 -271.90194118 267.97114815 -270.63891602 267.22949219 C-258.90029596 260.31232762 -247.19906508 253.33754532 -235.5625 246.25 C-234.70375778 245.7269931 -234.70375778 245.7269931 -233.82766724 245.19342041 C-233.25748871 244.84615906 -232.68731018 244.49889771 -232.09985352 244.14111328 C-224.48040062 239.50122382 -216.84177789 234.89471347 -209.1875 230.3125 C-193.16207022 220.71309644 -177.2153951 210.98842723 -161.3125 201.1875 C-148.74361489 193.4425421 -136.1371035 185.76137141 -123.50439453 178.12109375 C-121.12362617 176.68090366 -118.74453848 175.2379897 -116.36669922 173.79296875 C-112.87245436 171.66951844 -109.37394618 169.55319494 -105.875 167.4375 C-104.80757568 166.78773193 -103.74015137 166.13796387 -102.64038086 165.46850586 C-101.66335205 164.87948486 -100.68632324 164.29046387 -99.6796875 163.68359375 C-98.82101074 163.16337646 -97.96233398 162.64315918 -97.07763672 162.10717773 C-95 161 -95 161 -93 161 C-93.03552979 159.70675812 -93.07105957 158.41351624 -93.10766602 157.08108521 C-93.43255206 144.87061967 -93.67210198 132.66103439 -93.82899475 120.44722176 C-93.91237433 114.16805538 -94.02536054 107.892387 -94.20703125 101.61523438 C-94.38139216 95.55243737 -94.47664175 89.49299431 -94.51803589 83.42788315 C-94.5475147 81.11900885 -94.60509204 78.81031085 -94.69168091 76.50287247 C-95.32560244 58.90373991 -95.32560244 58.90373991 -91.46121979 54.07868385 C-87.71409765 50.83940949 -83.5655969 48.76764879 -79.01531887 46.88213444 C-75.90371256 45.52013901 -73.15816076 43.72873923 -70.296875 41.90234375 C-68.11519951 40.57971224 -65.932894 39.25811948 -63.75 37.9375 C-62.55338543 37.21212965 -61.35685442 36.48662144 -60.16040039 35.76098633 C-54.59755006 32.38779943 -49.03201894 29.01905626 -43.46502686 25.65270996 C-40.45511294 23.83219184 -37.44624753 22.0099449 -34.4375 20.1875 C-33.85522644 19.83510254 -33.27295288 19.48270508 -32.67303467 19.11962891 C-24.21012695 13.99507688 -15.80714157 8.78407052 -7.50561523 3.40112305 C-2.21141997 0 -2.21141997 0 0 0 Z " fill="#999999" transform="translate(809,322)"/>
<path d="M0 0 C0.65183021 13.26333009 1.14768512 26.52280038 1.45074081 39.79894161 C1.59630261 45.96639723 1.79312222 52.12283073 2.11230469 58.28393555 C4.18406439 99.33337851 4.18406439 99.33337851 -2.62915039 107.82891846 C-8.67282352 113.909457 -16.36551098 116.90648431 -24.35554504 119.61657715 C-30.42905244 121.92206014 -35.5819267 125.44769582 -41 129 C-43.13825012 130.32625909 -45.27976879 131.64727574 -47.42578125 132.9609375 C-48.49779785 133.62061523 -49.56981445 134.28029297 -50.67431641 134.95996094 C-59.42757145 140.32937799 -68.21496066 145.64294695 -76.99667358 150.96563721 C-82.50224034 154.30311345 -88.00150532 157.6508906 -93.5 161 C-95.37627408 162.1419731 -97.25257649 163.28389964 -99.12890625 164.42578125 C-102.1529057 166.26623131 -105.17636429 168.10755233 -108.19873047 169.95068359 C-122.41886804 178.62210971 -136.68264875 187.21274003 -151.01739502 195.69354248 C-158.32186793 200.01561224 -165.61401581 204.35533336 -172.86328125 208.76953125 C-173.49595917 209.15474945 -174.12863708 209.53996765 -174.78048706 209.93685913 C-177.75818166 211.75152506 -180.73304791 213.570591 -183.70507812 215.39453125 C-185.29932617 216.3690625 -185.29932617 216.3690625 -186.92578125 217.36328125 C-187.83755127 217.92313721 -188.74932129 218.48299316 -189.6887207 219.05981445 C-194.39570637 221.81778946 -199.21066806 224.38763713 -204 227 C-204 193.34 -204 159.68 -204 125 C-199.38 122.36 -194.76 119.72 -190 117 C-186.67288426 114.97699255 -183.36046621 112.943618 -180.0625 110.875 C-172.63240665 106.24401212 -165.1746265 101.66317546 -157.6875 97.125 C-144.68890071 89.23471849 -131.80718928 81.16050649 -118.93115234 73.07226562 C-107.75603164 66.05388532 -96.55738359 59.09442751 -85.21899414 52.3425293 C-78.86229175 48.54633337 -72.60000825 44.61529901 -66.35424805 40.63989258 C-60.11711867 36.68002426 -53.81908291 32.82749293 -47.5 29 C-38.01184834 23.25032206 -28.61278246 17.37299536 -19.24755859 11.42578125 C-15.46247528 9.02464215 -11.67078171 6.63418394 -7.875 4.25 C-7.1931665 3.81913086 -6.51133301 3.38826172 -5.80883789 2.94433594 C-1.11485411 0 -1.11485411 0 0 0 Z " fill="#FBFBFB" transform="translate(715,379)"/>
<path d="M0 0 C2.64530972 1.13563552 4.22741707 2.41683753 6.29296875 4.421875 C9.93412367 7.80899585 13.70468118 10.92307083 17.66796875 13.921875 C21.74950131 17.02036811 25.77612876 20.16056366 29.73046875 23.421875 C36.1613644 28.72503388 42.72724925 33.85010387 49.29296875 38.984375 C51.60653098 40.79552307 53.91898074 42.60808048 56.23046875 44.421875 C56.80442383 44.87216064 57.37837891 45.32244629 57.96972656 45.78637695 C62.28693898 49.17941729 66.57407729 52.60880456 70.85546875 56.046875 C75.48536289 59.76292727 80.14262804 63.4365796 84.85546875 67.046875 C85.891875 67.84351563 86.92828125 68.64015625 87.99609375 69.4609375 C89.7315171 70.79270011 91.47081502 72.11861733 93.21679688 73.43652344 C95.1860015 74.92353279 97.14609298 76.42194935 99.10546875 77.921875 C99.72301025 78.38279541 100.34055176 78.84371582 100.97680664 79.31860352 C102.47203115 80.47069673 103.89066241 81.7208276 105.29296875 82.984375 C105.29296875 83.974375 105.29296875 84.964375 105.29296875 85.984375 C103.39135742 87.51147461 103.39135742 87.51147461 100.7109375 89.13671875 C99.72569092 89.74217529 98.74044434 90.34763184 97.7253418 90.97143555 C96.11912964 91.93690308 96.11912964 91.93690308 94.48046875 92.921875 C92.26143994 94.28079482 90.04269305 95.6401751 87.82421875 97 C86.715625 97.67482422 85.60703125 98.34964844 84.46484375 99.04492188 C80.10790257 101.70898751 75.79155608 104.43445835 71.48046875 107.171875 C69.93631217 108.14861815 68.39204196 109.12518168 66.84765625 110.1015625 C65.32937874 111.06242362 63.81114937 112.0233608 62.29296875 112.984375 C59.23095351 114.92264249 56.16850002 116.86021351 53.10546875 118.796875 C52.33928223 119.28148193 51.5730957 119.76608887 50.78369141 120.26538086 C46.25961636 123.12295994 41.72583231 125.9643414 37.18359375 128.79296875 C36.13953369 129.44354248 35.09547363 130.09411621 34.01977539 130.7644043 C31.92903899 132.06601313 29.83709965 133.36569193 27.74389648 134.66333008 C21.54692998 138.51961236 15.50825214 142.48696686 9.66015625 146.859375 C6.33128644 148.44141214 4.78726189 148.12883216 1.29296875 146.984375 C-1.24433301 145.3794909 -3.48934485 143.4944969 -5.76953125 141.546875 C-7.11113538 140.43778061 -8.45359641 139.32972203 -9.796875 138.22265625 C-10.46058105 137.6704541 -11.12428711 137.11825195 -11.80810547 136.54931641 C-16.65987271 132.55088133 -21.70799637 128.79565614 -26.70703125 124.984375 C-28.34638545 123.73181178 -29.98570578 122.47920423 -31.625 121.2265625 C-39.77205019 115.00630574 -47.93015479 108.8030053 -56.14453125 102.671875 C-62.16522679 98.17378345 -68.09681446 93.57476311 -73.9921875 88.9140625 C-78.31610796 85.49701844 -82.66769154 82.11574457 -87.01953125 78.734375 C-87.74833496 78.16799316 -88.47713867 77.60161133 -89.22802734 77.01806641 C-90.65274889 75.9110258 -92.0775522 74.80409042 -93.50244141 73.69726562 C-97.23848571 70.79448746 -100.97272257 67.88938543 -104.70703125 64.984375 C-103.28492617 61.45853355 -101.7886066 60.10636146 -98.5078125 58.2421875 C-97.640354 57.74082275 -96.77289551 57.23945801 -95.87915039 56.72290039 C-94.93547607 56.19043701 -93.99180176 55.65797363 -93.01953125 55.109375 C-91.00305022 53.94549227 -88.98745195 52.78007902 -86.97265625 51.61328125 C-85.93302734 51.01402832 -84.89339844 50.41477539 -83.82226562 49.79736328 C-78.92903521 46.94962589 -74.09845427 44.00194966 -69.26953125 41.046875 C-68.32368164 40.46921387 -67.37783203 39.89155273 -66.40332031 39.29638672 C-64.47826583 38.12068886 -62.55346171 36.94458097 -60.62890625 35.76806641 C-57.65762718 33.95421573 -54.68290679 32.14614223 -51.70703125 30.33984375 C-43.2032215 25.17731331 -34.70355458 20.01037189 -26.26953125 14.734375 C-25.64401367 14.34499756 -25.01849609 13.95562012 -24.37402344 13.55444336 C-21.00278411 11.44939927 -17.6642165 9.30358682 -14.34765625 7.11328125 C-13.62376709 6.64245117 -12.89987793 6.17162109 -12.15405273 5.68652344 C-10.76789165 4.7840839 -9.38924145 3.86996158 -8.01977539 2.94238281 C-5.264497 1.16137999 -3.32861564 -0.01921279 0 0 Z " fill="#393838" transform="translate(710.70703125,594.015625)"/>
<path d="M0 0 C1.32 0.33 2.64 0.66 4 1 C4.33 2.32 4.66 3.64 5 5 C3.0625 4.1875 3.0625 4.1875 1 3 C0.67 2.01 0.34 1.02 0 0 Z " fill="#414142" transform="translate(692,723)"/>
</svg>
